<!--?xml version="1.0" encoding="UTF-8" standalone="no"?-->

<svg width="100%" height="100%" viewBox="0 0 800 800" version="1.1" xmlns="http://www.w3.org/2000/svg" xmlns:xlink="http://www.w3.org/1999/xlink" xml:space="preserve" xmlns:serif="http://www.serif.com/" style="fill-rule: evenodd; clip-rule: evenodd; stroke-linecap: square; stroke-linejoin: round; stroke-miterlimit: 10;">
    <g transform="matrix(1,0,0,1,-161.81,-229.383)">
        <g transform="matrix(0.994926,0,0,1.03786,7.02614,-42.0915)">
            <path style="fill:rgb(0,90,148);" d="M155.57300000000004,646.978A402.04,385.407 0,1,1 959.653,646.978A402.04,385.407 0,1,1 155.57300000000004,646.978" class="OdchTWbc_0"></path>
        </g>
        <g transform="matrix(1.07402,0,0,0.611087,-215.716,275.637)">
            <path d="M411.054,911.375C411.054,911.375 411.137,912.071 411.217,912.411C411.307,912.796 411.24,911.557 411.501,911.26C411.73,911 411.523,912.637 411.582,912.296C411.688,911.683 411.841,911.075 411.886,910.454C412.219,905.812 412.146,905.939 412.475,901.361C412.503,900.978 412.469,902.89 412.536,902.512C412.644,901.903 412.657,900.06 412.759,900.67C412.942,901.77 412.758,902.912 412.962,904.008C413.528,907.045 412.945,901.941 413.185,902.282C413.28,902.417 413.339,901.658 413.368,901.821C413.79,904.219 413.59,904.123 413.895,906.426C414.087,907.876 414.052,900.598 414.22,902.051C414.397,903.578 413.909,905.12 413.976,906.656C414.036,908.039 414.118,903.891 414.24,902.512C414.264,902.236 414.395,901.979 414.443,901.706C414.523,901.25 414.431,902.651 414.585,903.087C414.603,903.137 414.339,904.363 414.889,903.318C415.069,902.977 414.944,904.849 415.011,904.469C415.072,904.125 414.606,896.973 415.437,901.706C415.497,902.047 415.478,901.015 415.498,900.67C415.566,899.481 415.618,898.29 415.701,897.102C415.744,896.485 415.765,895.858 415.924,895.26C416.151,894.406 415.997,897.028 416.087,897.907C416.195,898.954 416.19,898.777 416.269,899.979C416.287,900.248 416.08,899.174 416.35,899.174C416.926,899.174 416.408,900.325 416.432,900.9C416.495,902.397 416.549,903.894 416.634,905.39C416.752,907.463 416.895,909.535 417.04,911.606C417.086,912.258 417.115,910.3 417.182,909.649C417.194,909.533 417.551,905.223 417.73,902.512C417.75,902.205 417.746,903.739 417.771,903.433C417.934,901.46 418.329,903.555 418.785,905.39C419.026,906.363 418.962,903.393 419.069,902.397C419.1,902.111 419.28,903.474 419.374,903.203C419.627,902.476 419.448,901.662 419.556,900.9C419.591,900.654 419.812,900.457 419.841,900.21C419.917,899.561 419.867,897.606 419.962,898.253C420.224,900.028 420.489,900.123 420.551,900.44C420.847,901.945 420.697,906.011 421.241,904.469C421.535,903.634 421.366,906.235 421.444,907.116C421.449,907.176 421.618,907.056 421.626,907.116C421.678,907.497 421.672,908.65 421.707,908.267C421.816,907.082 421.787,905.888 421.849,904.699C421.869,904.315 421.783,905.487 421.91,905.85C421.927,905.898 422.003,905.685 422.012,905.735C422.087,906.154 422.034,904.067 422.174,904.469C422.414,905.159 422.267,905.928 422.336,906.656C422.376,907.077 422.29,905.799 422.397,905.39C422.671,904.348 422.53,907.541 422.641,908.613C422.667,908.859 422.675,906.97 422.783,907.231C422.915,907.551 422.735,907.933 422.823,908.267C423.305,910.087 423.004,904.507 423.107,902.627C423.164,901.589 423.217,900.549 423.351,899.519C423.372,899.36 423.466,900.137 423.493,899.979C423.564,899.571 423.486,898.73 423.594,898.483C423.858,897.882 423.235,900.174 423.696,899.519C423.956,899.149 423.918,896.773 423.919,896.756C423.98,895.949 424.037,898.37 424.122,899.174C424.188,899.797 424.087,897.825 424.163,898.253C424.251,898.745 424.235,899.695 424.284,900.095C424.318,900.369 424.573,898.176 424.609,898.138C424.957,897.779 424.657,899.137 424.71,899.634C424.832,900.781 424.786,897.325 424.934,896.181C424.993,895.724 424.874,897.109 424.954,897.562C425.067,898.206 424.811,896.202 425.076,895.605C425.389,894.9 425.197,897.145 425.319,897.907C425.352,898.112 425.553,898.948 425.563,899.059C425.63,899.826 425.662,897.522 425.745,896.756C425.841,895.866 425.462,894.627 426.192,894.109C426.442,893.931 426.159,895.332 426.212,895.03C426.681,892.359 426.278,892.511 426.861,889.85C427.075,888.872 427.017,891.846 427.105,892.843C427.277,894.798 426.742,885.175 427.531,886.972C427.67,887.289 427.43,885.63 427.592,885.936C427.754,886.241 427.589,886.627 427.612,886.972C427.648,887.509 427.578,884.835 427.693,885.36C427.825,885.96 427.715,886.59 427.774,887.202C427.822,887.702 427.791,886.18 427.957,885.706C428.059,885.416 427.8,886.878 427.977,886.627C428.572,885.783 428.217,885.823 428.241,885.476C428.273,885.016 428.181,883.64 428.261,884.094C428.368,884.699 428.189,885.336 428.322,885.936C428.421,886.386 428.342,885.015 428.363,884.555C428.521,881.111 428.288,881.3 428.769,878.569C428.842,878.153 428.387,879.835 428.809,879.835C429.096,879.835 428.978,879.872 429.073,881.101C429.146,882.043 429.592,882.926 429.702,883.864C429.801,884.705 429.777,885.562 429.925,886.396C429.985,886.737 429.787,887.715 429.986,887.432C430.231,887.084 430.065,885.749 430.149,886.166C430.17,886.271 430.187,886.117 430.189,886.051C430.232,884.873 430.445,888.846 430.514,889.044C430.654,889.443 430.453,887.38 430.595,887.778C431.278,889.695 431.332,896.634 431.467,895.72C431.591,894.882 431.182,898.946 431.67,898.253C432.811,896.633 431.523,899.445 432.076,901.015C432.242,901.486 431.936,902.969 432.137,902.512C432.842,900.907 432.302,901.03 432.563,899.404C432.612,899.101 432.502,900.615 432.604,900.325C432.836,899.666 432.93,899.855 433.05,899.174C433.176,898.461 433.011,900.41 433.152,900.21C433.774,899.326 432.455,899.13 433.233,898.253C433.666,897.765 433.2,900.853 433.314,900.21C433.423,899.591 433.542,900.428 433.618,901.015C433.672,901.434 433.572,900.158 433.679,899.749C433.788,899.332 433.8,901.422 433.943,901.015C434.458,899.552 434.27,899.637 434.674,898.253C434.836,897.697 434.297,899.979 434.876,899.979C435.301,899.979 434.944,899.131 435.018,898.713C435.092,898.297 434.98,899.573 435.1,899.979C435.188,900.278 435.209,899.366 435.262,899.059C435.284,898.934 435.328,900.679 435.384,900.785C435.528,901.057 435.322,899.591 435.465,899.864C435.704,900.321 435.472,901.212 435.607,901.821C435.849,902.913 435.516,900.106 435.708,900.325C436.216,900.904 435.83,903.393 435.911,902.627C436.047,901.345 436.209,901.506 436.236,900.325C436.253,899.595 436.21,901.793 436.337,902.512C436.4,902.866 436.453,903.242 436.642,903.548C436.823,903.842 436.588,902.175 436.662,902.512C436.853,903.384 436.253,904.59 436.906,903.663C437.263,903.157 437.042,906.115 437.149,905.505C437.331,904.471 436.969,901.378 437.636,899.174C437.759,898.769 437.68,900.019 437.717,900.44C437.775,901.092 437.839,899.136 437.88,898.483C437.929,897.716 437.918,896.945 438.001,896.181C438.08,895.454 438.017,897.652 438.164,898.368C438.21,898.594 438.135,897.902 438.184,897.677C438.374,896.81 438.343,901.204 438.468,900.325C438.517,899.983 438.482,898.944 438.509,899.289C438.593,900.361 437.991,903.391 438.61,902.512C440.338,900.059 439.104,890.561 439.361,887.778C439.407,887.28 439.354,886.769 439.462,886.281C439.62,885.569 439.396,887.753 439.543,888.468C439.652,888.996 439.605,887.39 439.686,886.857C439.756,886.395 439.857,885.938 439.929,885.476C439.965,885.249 439.842,886.37 439.949,886.166C439.984,886.099 440.008,884.437 440.01,884.44C440.208,884.724 440.034,885.818 440.091,885.476C440.477,883.161 440.387,883.319 440.517,880.986C440.539,880.6 440.456,881.808 440.659,882.137C440.684,882.178 440.749,880.27 440.822,881.101C440.91,882.098 440.469,884.912 441.045,884.094C441.642,883.246 440.858,882.022 440.903,880.986C440.941,880.103 440.972,882.755 441.065,883.634C441.094,883.908 441.212,882.555 441.248,882.828C441.315,883.33 441.471,883.82 441.512,884.325C441.625,885.706 440.631,889.151 441.836,888.468C442.54,888.069 442.082,884.46 442.222,883.404C442.273,883.022 442.256,884.179 442.344,884.555C442.502,885.231 442.088,883.004 442.547,882.483C442.878,882.107 442.436,884.411 442.689,883.979C443.313,882.915 442.737,883.013 442.952,881.792C443.106,880.918 443.114,885.321 443.216,884.44C443.476,882.198 443.722,881.719 444.292,882.368C445.054,883.236 444.444,880.063 444.555,878.914C444.608,878.361 444.655,877.771 444.9,875.691C444.95,875.268 445.028,877.38 445.083,876.957C445.212,875.966 445.092,874.949 445.266,873.965C445.333,873.584 445.371,875.501 445.408,875.116C445.612,872.966 445.747,871.356 445.996,867.634C446.005,867.497 446.208,867.425 446.219,867.288C446.582,862.645 446.51,861.704 446.848,857.734C446.988,856.085 447.108,854.435 447.214,852.784C447.273,851.864 447.27,849.106 447.376,850.022C447.393,850.167 447.414,851.352 447.437,851.288C447.679,850.6 447.331,849.806 447.518,849.101C447.901,847.652 447.675,852.095 447.782,853.59C447.796,853.784 447.854,852.823 447.883,853.015C448.16,854.873 448.2,855.308 448.208,855.432C448.298,856.812 448.272,858.202 448.431,859.576C448.478,859.984 448.563,862.468 448.614,861.878C448.681,861.113 448.485,860.344 448.512,859.576C448.558,858.264 448.783,864.793 448.938,863.49C448.984,863.104 449.343,863.841 449.385,863.605C449.538,862.735 449.36,865.378 449.486,866.252C449.607,867.09 449.608,864.563 449.689,863.72C449.777,862.802 449.759,865.566 449.872,866.482C449.922,866.886 450.217,865.733 450.278,865.331C450.377,864.679 450.446,867.937 450.562,867.288C450.922,865.268 450.612,865.385 450.825,863.374C450.867,862.982 450.755,864.316 451.089,864.526C451.353,864.692 451.185,865.142 451.252,865.446C451.327,865.786 451.347,864.065 451.394,864.41C451.53,865.401 451.481,866.412 451.617,867.403C451.727,868.207 451.694,864.202 451.901,864.986C451.906,865.005 452.01,866.762 452.063,866.482C452.501,864.173 452.321,864.338 452.611,861.878C452.656,861.497 452.554,863.4 452.652,863.029C452.77,862.584 452.519,862.082 452.672,861.648C452.854,861.131 452.949,863.805 452.997,863.259C453.353,859.223 453.621,867.581 453.869,870.396C453.903,870.781 453.918,869.62 454.011,869.245C454.093,868.914 454.502,868.127 454.64,868.439C454.698,868.57 454.611,866.432 454.701,866.943C454.748,867.212 454.754,867.043 454.803,867.288C454.959,868.063 455.168,868.91 455.269,868.094C455.34,867.522 454.988,870.252 455.371,869.821C455.6,869.563 455.397,869.286 455.614,869.59C455.837,869.902 455.612,868.822 455.635,868.439C455.686,867.602 455.785,865.776 455.919,864.871C455.931,864.789 455.934,866.137 455.98,866.137C456.582,866.137 455.593,862.436 456.345,864.871C456.447,865.203 456.405,863.49 456.446,863.835C456.633,865.422 456.384,865.242 456.71,866.828C456.849,867.505 456.12,864.756 456.811,864.756C457.386,864.756 456.832,865.907 456.852,866.482C456.864,866.829 456.864,865.781 456.953,865.446C457.141,864.737 457.104,866.906 457.197,867.634C457.377,869.044 457.247,866.239 457.278,866.713C457.459,869.439 457.603,873.54 457.664,874.31C457.77,875.652 457.131,877.269 457.948,878.339C458.182,878.646 458.011,877.569 458.07,877.188C458.158,876.619 458.011,878.351 458.13,878.914C458.266,879.553 458.135,877.603 458.232,876.957C458.284,876.61 458.181,878.255 458.414,877.993C458.822,877.533 458.369,876.753 458.496,876.152C458.632,875.508 458.514,877.498 458.759,878.109C458.86,878.361 458.8,877.044 458.881,877.303C459.17,878.225 459.045,881.13 459.226,880.181C459.346,879.555 459.601,880.01 459.693,880.756C459.749,881.214 459.694,879.829 459.774,879.375C459.855,878.919 459.837,880.303 459.936,880.756C459.985,880.979 459.974,879.725 460.038,879.605C460.525,878.687 459.988,881.716 460.281,882.713C460.423,883.195 460.384,881.713 460.464,881.217C460.647,880.073 460.725,883.52 460.87,884.67C460.966,885.433 460.96,886.206 461.032,886.972C461.057,887.24 461.054,885.898 461.073,886.166C461.093,886.444 461.106,888.196 461.113,888.238C461.237,888.944 461.164,886.16 461.235,886.857C461.611,890.57 461.612,893.123 461.986,897.907C462.132,899.769 462.104,899.657 462.452,903.433C462.494,903.892 462.187,901.706 462.493,902.051C463.725,903.44 462.684,907.908 462.96,909.994C463.01,910.375 462.991,908.459 463,908.843C463.109,913.748 463.431,921.856 464.319,927.721C464.434,928.481 464.34,926.181 464.441,925.419C464.487,925.075 464.511,926.801 464.542,926.455C464.603,925.772 464.503,924.724 464.603,924.153C464.796,923.052 464.736,928.592 464.928,927.491C465.39,924.833 465.057,928.078 465.151,928.987C465.199,929.448 465.183,927.161 465.314,927.606C465.456,928.085 464.973,928.835 465.395,929.102C465.759,929.332 465.626,927.406 465.659,927.836C465.734,928.824 465.422,928.719 465.76,929.678C465.952,930.223 465.822,928.52 465.922,927.951C466.029,927.345 465.429,929.793 466.044,929.793C466.3,929.793 466.239,922.918 466.531,921.045C466.602,920.588 466.573,921.971 466.653,922.426C466.707,922.734 466.81,921.193 466.835,921.505C466.946,922.886 466.342,924.517 467.14,925.649C467.295,925.869 467.135,924.575 467.16,924.843C467.233,925.608 467.21,926.38 467.282,927.145C467.319,927.533 467.418,928.681 467.485,928.297C467.92,925.794 467.754,929.984 467.911,931.174C467.997,931.824 467.579,929.596 468.114,929.217C468.384,929.026 468.411,929.865 468.438,929.563C468.492,928.948 468.509,930.802 468.641,931.405C468.66,931.49 468.758,931.087 468.763,931.174C468.851,932.753 468.663,932.595 468.905,933.361C469.01,933.693 468.884,934.705 469.047,934.397C469.281,933.955 469.091,933.397 469.149,932.901C469.284,931.756 469.271,935.204 469.352,936.354C469.512,938.627 469.678,940.498 469.92,940.498C471.076,940.498 470.092,942.804 470.224,943.952C470.246,944.143 470.221,943.189 470.265,943.376C470.397,943.938 470.244,945.657 470.407,945.103C470.548,944.623 470.422,944.099 470.508,943.606C470.654,942.773 470.551,945.301 470.67,946.139C470.706,946.394 470.688,946.171 470.731,946.599C471.354,952.799 471.272,952.673 471.665,958.916C471.668,958.963 471.846,961.668 471.989,962.714C472.052,963.173 472.061,961.787 472.152,961.333C472.259,960.801 471.833,962.945 472.375,962.945C473.642,962.945 472.475,965.478 472.558,966.743C472.593,967.283 472.704,967.816 472.761,968.355C472.83,969.005 472.797,970.962 472.862,970.312C472.908,969.853 472.861,968.473 472.923,968.93C473.16,970.686 473.199,972.463 473.39,974.225C473.46,974.874 473.315,972.907 473.45,972.269C473.497,972.049 473.628,972.199 473.633,972.038C473.98,960.438 473.578,960.543 474.445,948.901C474.492,948.273 474.74,948.855 475.094,950.858C475.181,951.349 474.989,949.833 475.155,949.362C475.403,948.662 475.385,952.265 475.581,951.549C476.54,948.049 475.849,948.087 476.109,944.412C476.174,943.492 476.183,946.257 476.271,947.175C476.342,947.916 476.604,944.253 476.717,944.988C476.908,946.228 476.575,946.086 476.961,947.405C477.104,947.894 477.186,945.405 477.265,945.908C477.372,946.591 477.273,947.293 477.346,947.98C477.399,948.477 477.374,945.987 477.428,946.484C477.667,948.697 477.706,948.482 477.915,950.858C477.976,951.549 478.03,949.475 478.117,948.786C478.175,948.329 478.099,949.713 478.178,950.167C478.225,950.435 478.048,949.362 478.32,949.362C479.593,949.362 478.523,951.903 478.726,953.16C478.763,953.387 478.749,952.24 478.767,952.47C478.815,953.083 478.742,953.714 478.889,954.311C478.99,954.721 478.667,952.699 478.909,953.045C479.057,953.258 478.971,953.827 478.99,953.506C479.023,952.931 478.761,955.74 479.031,955.232C479.283,954.757 478.956,954.146 479.071,953.621C479.211,952.982 479.101,956.222 479.213,955.578C479.325,954.934 479.237,954.267 479.335,953.621C479.427,953.011 479.261,956.024 479.518,955.463C479.807,954.834 479.586,954.079 479.66,953.391C479.726,952.78 479.695,955.845 479.741,955.232C479.818,954.217 479.625,954.407 479.984,953.391C480.132,952.973 480.313,955.093 480.39,954.657C480.635,953.265 480.297,953.36 480.613,952.009C480.692,951.672 480.575,952.708 480.654,953.045C480.707,953.269 480.561,952.167 480.694,952.355C481.158,953.014 480.695,953.97 480.776,954.772C480.803,955.04 480.811,954.235 480.816,953.966C481.049,941.995 477.572,906.743 481.506,918.052C481.756,918.772 481.555,917.672 481.608,917.016C481.645,916.552 481.729,917.939 481.81,918.397C481.848,918.611 482.096,918.757 482.115,918.973C482.136,919.211 482.113,928.055 482.44,922.541C482.499,921.542 482.598,924.537 482.683,925.534C482.732,926.11 482.763,926.687 482.825,927.261C482.859,927.579 483.021,926.028 483.089,926.34C483.222,926.946 483.302,928.799 483.353,928.181C484.914,909.123 481.312,877.52 484.753,855.202C484.906,854.209 485.025,857.193 485.098,858.195C485.134,858.693 485.092,857.19 485.179,856.698C485.367,855.635 485.344,858.851 485.483,859.921C485.627,861.027 485.645,862.146 485.727,863.259C485.733,863.34 485.802,862.948 485.808,863.029C485.858,863.718 485.84,864.412 485.889,865.101C485.924,865.6 485.905,864.097 485.991,863.605C486.058,863.225 486.013,864.383 486.112,864.756C486.191,865.053 486.071,863.545 486.173,863.835C486.529,864.845 486.246,865.012 486.376,866.482C486.416,866.941 486.331,864.653 486.437,865.101C487.032,867.611 486.474,879.149 487.33,875.116C487.402,874.778 487.369,875.807 487.391,876.152C487.54,878.532 487.636,878.312 487.715,879.605C487.787,880.794 487.351,884.231 487.898,883.173C488.49,882.028 488.188,883.954 488.425,886.972C488.462,887.438 488.601,885.128 488.669,885.591C488.9,887.165 488.954,887.543 488.994,887.317C489.122,886.597 489.108,888.775 489.156,889.504C489.342,892.34 489.367,892.181 489.704,895.145C489.747,895.527 489.711,893.592 489.744,894.224C489.907,897.293 489.991,900.365 490.171,903.433C490.189,903.741 490.165,902.808 490.252,902.512C490.513,901.625 490.409,904.354 490.495,905.275C490.614,906.544 490.4,907.919 490.942,909.073C491.008,909.213 490.894,907.413 490.982,908.037C491.705,913.17 491.544,918.01 492.403,923.232C492.436,923.433 492.559,922.458 492.606,922.656C492.913,923.964 492.75,925.326 492.95,927.03C492.977,927.262 493.031,926.11 493.072,926.34C493.403,928.196 493.14,930.126 493.478,931.98C493.596,932.625 493.597,930.673 493.681,930.023C493.775,929.292 493.924,927.348 493.985,928.181C494.357,933.267 495.136,938.94 495.406,944.412C495.512,946.564 495.657,953.001 495.872,950.858C495.903,950.552 495.869,949.633 495.913,949.937C496.034,950.771 495.909,952.02 496.116,951.088C496.249,950.489 496.013,954.222 496.278,952.7C496.469,951.601 496.216,951.76 496.481,950.743C496.607,950.259 496.554,951.74 496.583,952.239C496.61,952.702 496.591,951.295 496.745,950.858C497.003,950.128 496.432,952.693 497.049,953.16C497.211,953.283 497.227,952.787 497.252,952.585C497.479,950.741 497.46,948.091 497.557,946.829C497.629,945.894 497.563,946.106 497.76,944.988C497.847,944.495 497.828,942.993 497.881,943.491C498.21,946.599 497.841,946.558 498.794,952.585C498.968,953.685 498.867,950.36 498.896,949.247C498.975,946.216 498.995,943.183 499.119,940.153C499.348,934.543 498.356,923.26 500.012,920.124C500.138,919.885 500.099,920.66 500.113,920.93C500.179,922.234 500.224,923.539 500.296,924.843C500.341,925.653 500.439,926.462 500.58,927.261C500.699,927.933 500.828,928.723 501.026,931.52C501.116,932.788 501.206,928.984 501.351,927.721C501.413,927.185 501.329,926.992 501.716,925.534C501.835,925.084 501.87,927.378 501.919,926.915C502.086,925.34 502.128,925.569 502.305,923.807C502.351,923.346 502.415,925.65 502.467,925.189C503.286,917.887 502.809,916.27 503.705,910.339C503.768,909.921 503.691,911.187 503.746,911.606C503.829,912.229 504.061,909.142 504.151,909.764C504.241,910.389 504.465,909.97 504.537,909.303C504.603,908.692 504.284,911.648 504.638,911.145C505.849,909.425 504.683,908.267 505.288,906.08C505.401,905.672 505.337,906.924 505.349,907.347C505.47,911.644 505.552,915.942 505.693,920.239C505.886,926.127 506.076,928.468 506.525,933.016C506.639,934.169 506.638,930.689 506.911,929.563C507.038,929.039 506.697,930.769 507.053,931.174C507.433,931.606 506.904,928.905 507.094,929.448C507.308,930.057 507.171,930.944 507.337,930.944C507.76,930.944 507.365,929.261 507.439,929.678C507.553,930.322 507.548,932.288 507.581,931.635C508.021,922.995 508.597,907.353 508.9,893.879C508.989,889.922 509.147,877.62 509.813,881.447C509.899,881.939 509.767,880.433 509.894,879.95C509.982,879.616 509.837,880.654 509.934,880.986C509.999,881.208 509.98,880.526 509.995,880.296C510.097,878.723 509.94,877.111 510.3,875.576C510.511,874.678 510.28,877.435 510.462,878.339C510.487,878.461 510.595,877.869 510.604,877.993C510.67,878.952 510.654,879.917 510.766,880.871C510.798,881.139 510.801,880.331 510.848,880.065C510.976,879.342 510.919,881.54 511.091,882.253C511.163,882.552 511.114,882.39 511.132,882.598C511.159,882.906 511.193,881.371 511.233,881.677C511.408,883.001 511.226,884.481 511.436,883.289C511.496,882.947 511.523,883.978 511.537,884.325C511.563,884.999 511.604,884.966 511.72,885.13C511.982,885.501 510.868,888.257 511.882,887.432C512.415,886.998 512.08,885.244 512.085,885.13C512.231,881.523 512.318,877.914 512.511,874.31C512.545,873.684 512.754,876.763 512.897,876.152C513.031,875.582 513.027,873.872 513.222,874.425C513.301,874.648 513.36,875.351 513.384,875.116C513.669,872.287 513.356,872.008 513.729,872.008C514.19,872.008 513.349,870.626 513.81,870.626C514.271,870.626 513.655,872.415 513.871,872.008C513.968,871.826 513.85,870.306 513.952,870.511C514.764,872.142 514.482,874.195 514.662,876.842C514.683,877.149 514.415,875.921 514.723,875.921C515.57,875.921 514.761,877.623 514.926,878.454C514.979,878.718 514.972,877.379 514.987,877.648C515.066,879.106 514.743,883.399 515.23,882.022C515.435,881.442 515.15,884.445 515.352,883.864C515.554,883.284 515.264,882.636 515.291,882.022C515.311,881.561 515.259,883.851 515.372,883.404C516.855,877.522 515.8,871.279 516.002,865.216C516.255,857.592 516.677,853.911 517.32,844.496C517.346,844.111 517.408,846.033 517.442,845.648C517.568,844.237 517.323,844.369 517.686,843C517.804,842.555 517.646,843.925 517.706,844.381C517.912,845.945 518.012,841.239 518.071,839.662C518.233,835.336 517.745,833.685 518.903,829.302C518.991,828.967 518.933,829.995 518.984,830.338C519.063,830.871 519.05,829.262 519.106,828.726C519.134,828.458 519.12,829.8 519.147,829.532C519.198,829.035 519.042,828.507 519.208,828.036C519.401,827.487 519.37,830.335 519.471,829.762C519.632,828.845 519.299,828.938 519.695,828.036C519.727,827.964 519.765,829.848 519.796,829.993C520.032,831.106 520.129,831.013 520.486,833.906C520.566,834.556 520.014,831.949 520.669,831.949C521.083,831.949 520.863,831.749 520.953,830.798C520.997,830.339 520.827,832.602 521.014,832.18C521.217,831.723 520.785,830.307 521.115,830.683C521.395,831.002 521.01,832.295 521.257,831.949C522.758,829.844 521.598,825.547 521.785,824.122C521.825,823.816 521.861,825.351 521.886,825.043C522.081,822.689 522.08,822.88 522.373,820.669C522.423,820.288 522.243,822.153 522.434,821.82C522.703,821.35 522.535,820.74 522.637,820.208C522.84,819.149 521.823,823.431 522.901,823.431C523.365,823.431 523.065,822.514 523.083,822.05C528.677,677.388 523.532,532.51 523.591,387.74C523.604,355.432 523.625,323.125 523.672,290.817C523.679,286.097 523.706,300.256 523.712,304.976C523.929,476.835 524.045,648.695 524.341,820.554C524.363,833.101 524.465,845.649 524.666,858.195C524.729,862.098 524.742,869.864 525.518,867.979C525.768,867.371 525.682,869.284 525.762,869.936C525.833,870.513 525.951,871.084 526.005,871.662C526.127,872.961 526.638,878.386 526.655,878.569C526.739,879.458 526.943,880.332 527.06,881.217C527.111,881.598 527.054,882.746 527.121,882.368C527.295,881.384 527.124,880.364 527.263,879.375C527.327,878.918 527.303,881.215 527.344,880.756C527.353,880.657 527.342,880.759 527.405,880.641C527.64,880.198 527.379,878.673 527.547,879.145C527.65,879.434 527.535,880.367 527.588,880.065C529.863,867.198 529.013,853.974 529.719,841.388C529.733,841.14 529.968,840.944 530.003,840.698C530.083,840.127 529.915,838.426 530.104,838.971C530.257,839.41 530.181,840.804 530.287,840.352C530.942,837.569 530.375,835.058 530.977,832.41C531.028,832.185 530.977,833.331 530.997,833.101C531.134,831.529 530.964,831.687 531.382,829.993C531.446,829.732 531.387,831.066 531.403,830.798C531.526,828.704 531.409,828.889 531.606,826.654C531.616,826.538 531.83,826.995 531.869,826.885C532.259,825.778 531.999,818.565 532.519,821.014C532.639,821.579 532.603,819.863 532.64,819.287C532.724,817.983 532.815,816.68 532.864,815.374C533.005,811.576 533.172,807.778 533.209,803.978C533.301,794.462 533.245,784.946 533.249,775.43C533.326,611.36 533.316,447.29 533.452,283.22C533.48,249.953 533.538,349.753 533.574,383.02C533.687,488.845 533.739,594.669 533.899,700.494C533.948,732.917 534.048,765.34 534.203,797.762C534.264,810.578 534.381,823.394 534.548,836.209C534.678,846.225 534.532,857.202 535.644,867.288C535.678,867.593 535.631,866.67 535.684,866.367C535.844,865.456 535.859,868.209 535.948,869.13C535.978,869.44 536.064,869.743 536.11,870.051C536.505,872.725 536.161,876.568 536.983,880.641C537.235,881.892 537.332,878.112 537.45,876.842C537.465,876.682 537.539,877.151 537.592,877.303C537.746,877.741 537.655,875.472 537.774,875.921C537.872,876.293 537.561,876.784 537.815,877.073C538.094,877.391 537.823,875.389 537.896,875.806C538.201,877.56 538.194,877.533 538.505,877.533C539.196,877.533 538.506,876.145 538.606,875.461C538.712,874.739 538.557,876.934 538.708,877.648C538.812,878.137 538.776,875.654 538.829,876.152C538.977,877.546 539.076,879.493 539.174,879.029C539.481,877.582 539.513,877.733 539.641,876.382C539.747,875.264 539.911,871.938 540.108,873.044C540.429,874.848 540.514,876.052 540.716,879.49C540.766,880.333 540.291,876.267 540.777,876.957C542.458,879.343 540.362,881.633 541.467,884.785C542.128,886.671 541.687,880.794 541.792,878.799C541.837,877.954 541.872,877.109 541.954,876.267C542.006,875.732 541.884,878.394 542.035,877.878C542.628,875.853 542.336,874.7 542.543,872.468C542.555,872.335 542.658,872.914 542.746,872.814C543.03,872.49 542.697,869.247 543.05,871.662C543.124,872.166 543.059,870.197 543.091,870.742C543.11,871.069 543.21,870.527 543.253,870.281C543.367,869.636 543.258,871.607 543.436,872.238C543.77,873.425 543.599,869.776 543.76,868.554C543.801,868.245 543.777,869.2 543.923,869.475C544.412,870.397 543.911,865.402 544.308,866.367C545.306,868.793 545.047,859.588 545.221,856.928C545.241,856.621 545.208,858.152 545.262,857.849C545.501,856.508 545.252,856.683 545.424,855.432C545.481,855.013 545.45,857.117 545.505,856.698C545.556,856.314 545.594,855.167 545.668,855.547C545.805,856.255 545.887,858.079 546.094,858.079C546.136,858.079 546.087,859.424 546.155,859.231C546.308,858.796 546.081,857.414 546.236,857.849C547.328,860.912 546.364,865.767 547.088,863.029C547.315,862.17 547.198,864.81 547.392,865.677C547.502,866.167 547.536,864.682 547.555,864.18C547.685,860.727 547.877,857.275 547.94,853.82C548.156,841.925 548.493,830.032 548.569,818.136C548.723,794.155 548.619,770.173 548.63,746.192C548.7,594.669 548.725,443.146 548.813,291.623C548.819,280.841 548.862,313.187 548.874,323.969C549.038,469.737 549.118,615.504 549.34,761.272C549.391,794.742 547.896,839.283 550.7,873.389C550.747,873.965 550.775,872.236 550.842,871.662C550.861,871.5 551.146,872.166 551.187,872.008C551.275,871.673 551.224,870.628 551.268,870.972C551.663,874.041 551.851,873.843 552.262,876.842C552.585,879.201 552.546,872.087 552.607,869.706C552.807,861.84 552.953,853.973 553.175,846.108C553.53,833.533 553.678,830.643 554.251,810.654C554.308,808.656 554.451,806.66 554.616,804.668C554.74,803.172 555.352,800.144 555.651,795.575C555.662,795.413 555.794,796.196 555.813,796.035C556.734,788.151 556.924,787.119 556.95,779.92C557.037,755.785 556.998,731.65 557.01,707.515C557.085,558.179 557.129,408.843 557.213,259.507C557.216,254.097 557.247,270.328 557.254,275.738C557.47,437.774 557.591,599.811 557.883,761.847C557.911,777.279 558.121,805.11 558.492,823.546C558.651,831.435 558.952,837.054 559.608,839.547C559.862,840.513 559.728,837.553 559.75,836.554C559.801,834.29 559.831,832.026 559.851,829.762C559.939,819.824 560.06,809.887 560.074,799.949C560.161,738.595 560.125,677.242 560.156,615.888C560.213,500.433 560.25,384.977 560.338,269.522C560.345,260.313 560.386,287.939 560.399,297.148C560.595,433.937 560.707,570.726 560.967,707.515C561.018,734.365 559.366,764.269 562.185,791.546C562.224,791.928 561.992,790.106 562.246,790.395C563.032,791.29 562.276,792.784 562.449,793.963C562.494,794.267 562.387,792.752 562.489,793.042C563.37,795.543 562.72,798.34 562.895,800.985C562.933,801.56 562.814,798.705 562.976,799.258C563.241,800.164 563.072,800.012 563.118,800.985C563.188,802.482 563.185,806.962 563.362,805.474C563.386,805.268 563.506,804.798 563.625,805.704C563.66,805.971 563.672,805.168 563.686,804.899C563.747,803.71 563.788,802.519 563.849,801.33C563.936,799.625 563.858,796.947 564.457,796.265C565.6,794.964 564.36,799.782 564.843,801.445C565.079,802.259 564.972,799.755 565.066,798.913C565.173,797.953 565.177,794.571 565.594,793.388C565.722,793.026 565.381,794.251 565.634,794.539C565.939,794.886 565.274,793.157 565.736,793.157C568.357,793.157 566.218,798.378 566.487,800.985C566.554,801.636 566.556,799.676 566.649,799.028C566.731,798.454 566.802,801.332 566.852,800.755C566.92,799.974 566.979,800.294 567.136,800.294C568.33,800.294 567.322,795.54 567.461,796.726C567.598,797.892 567.336,797.748 567.704,798.798C567.831,799.16 567.705,798.03 567.724,797.647C567.81,795.959 567.896,794.271 567.968,792.582C568.366,783.276 568.326,783.4 568.333,774.164C568.377,716.532 568.387,658.901 568.414,601.269C568.468,486.389 568.516,371.509 568.577,256.629C568.577,256.437 568.597,257.013 568.597,257.205C568.63,277.157 568.655,297.11 568.678,317.062C568.811,432.441 568.876,547.819 569.064,663.198C569.127,702.144 569.127,741.093 569.693,780.035C569.84,790.181 569.779,790.064 570.261,797.992C570.441,800.945 570.694,800.701 570.91,803.632C570.913,803.679 570.988,803.7 570.991,803.747C571.242,807.345 571.35,810.988 571.762,813.071C571.934,813.943 571.316,816.194 572.067,815.719C572.456,815.473 572.002,814.786 572.107,814.338C572.344,813.329 572.136,816.412 572.209,817.446C572.228,817.715 572.243,816.374 572.29,816.64C572.403,817.285 572.258,819.216 572.473,818.597C572.726,817.869 572.499,815.544 572.675,816.294C573.651,820.451 573.198,824.762 573.649,829.302C573.676,829.572 573.74,828.226 573.771,828.496C573.913,829.723 573.466,833.19 574.177,832.18C574.377,831.896 574.189,830.809 574.278,831.144C574.917,833.557 573.776,835.449 575.029,837.244C575.403,837.78 575.057,835.932 575.171,835.288C575.258,834.793 575.187,837.258 575.354,836.784C575.584,836.131 575.409,835.399 575.496,834.712C575.517,834.543 575.629,835.318 575.719,835.173C575.88,834.912 575.615,833.971 575.739,834.252C576.051,834.956 575.774,837.309 575.922,836.554C576.062,835.838 575.969,835.095 576.024,834.367C576.073,833.714 575.809,836.859 576.186,836.324C576.476,835.912 576.009,834.496 576.389,834.827C576.605,835.015 576.558,836.216 576.571,836.093C576.698,834.903 576.82,831.338 576.977,832.525C577.022,832.867 576.984,833.906 576.998,833.561C577.228,827.923 577.283,822.277 577.545,816.64C577.765,811.922 577.264,807.134 578.073,802.481C578.356,800.855 578.142,799.181 578.215,797.532C578.224,797.339 578.257,798.299 578.276,798.107C578.31,797.762 578.225,796.751 578.357,797.071C578.532,797.497 578.318,798.002 578.418,798.452C578.484,798.752 578.443,797.839 578.459,797.532C578.518,796.381 578.56,795.228 578.641,794.078C578.654,793.886 578.636,794.844 578.661,794.654C579.507,788.274 578.588,788.241 579.575,784.639C579.677,784.268 579.578,785.417 579.676,785.79C579.851,786.459 579.744,784.409 579.757,783.718C579.822,780.304 579.91,776.889 579.919,773.474C579.985,747.996 579.968,722.518 579.98,697.04C580.049,549.162 580.077,401.284 580.163,253.406C580.167,245.962 580.214,268.294 580.224,275.738C580.431,433.976 580.552,592.214 580.812,750.452C580.836,764.764 580.938,779.076 581.076,793.388C581.141,800.142 581.133,806.905 581.543,813.647C581.574,814.151 581.618,812.019 581.705,812.266C582.297,813.946 581.952,811.869 582.192,807.086C582.232,806.28 582.215,808.702 582.314,809.503C582.38,810.037 582.234,808.398 582.415,807.891C582.879,806.588 582.419,810.666 582.618,812.035C582.69,812.53 582.654,811.034 582.72,810.539C582.801,809.93 582.657,811.779 582.781,812.381C582.884,812.881 582.989,813.38 583.105,813.877C583.173,814.167 583.456,813.367 583.491,813.071C583.511,812.903 583.524,811.545 583.531,811.575C583.654,812.099 583.541,813.717 583.633,813.187C583.705,812.769 583.646,811.51 583.755,811.92C583.874,812.367 583.786,813.756 583.876,813.302C583.988,812.735 583.685,811.103 584.018,811.575C585.163,813.195 583.707,813.28 584.323,815.028C584.356,815.121 584.333,814.008 584.363,814.222C584.449,814.831 584.398,816.677 584.444,816.064C584.485,815.528 584.437,814.988 584.485,814.453C584.523,814.026 584.396,816.013 584.708,815.719C585.185,815.27 584.933,815.739 585.013,817.676C585.035,818.214 585.047,816.6 585.094,816.064C585.161,815.299 585.142,817.601 585.216,818.366C585.257,818.788 585.195,816.701 585.337,817.1C586.015,819.003 585.518,824.556 585.845,827.345C586.078,829.332 586.152,823.355 586.291,821.359C586.368,820.247 586.388,819.132 586.474,818.021C586.876,812.831 587.509,802.695 587.529,793.963C587.584,769.636 587.578,745.31 587.59,720.983C587.666,568.117 587.699,415.251 587.793,262.385C587.799,251.872 587.84,283.412 587.853,293.925C588.029,431.673 588.115,569.422 588.361,707.17C588.4,728.849 588.528,750.528 588.706,772.207C588.758,778.501 588.901,784.793 589.051,791.085C589.113,793.696 589.221,796.306 589.375,798.913C589.429,799.833 589.174,802.545 589.477,801.675C589.959,800.29 589.545,801.855 589.7,803.172C589.772,803.786 589.755,801.925 589.923,801.33C589.996,801.071 589.896,802.401 589.943,802.136C590.125,801.115 589.457,800.43 590.288,799.258C590.554,798.882 590.191,801.085 590.309,800.64C590.486,799.971 590.339,797.882 590.43,798.568C590.603,799.876 590.211,800.511 590.654,802.021C590.784,802.464 590.588,800.217 590.775,800.64C591.023,801.202 590.797,801.87 590.857,802.481C590.902,802.94 590.871,800.642 590.917,801.1C590.948,801.411 591.016,801.25 591.1,801.675C591.228,802.317 591.193,804.283 591.262,803.632C592.151,795.238 591.896,788.398 592.561,779.229C592.564,779.182 592.695,779.276 592.703,779.229C592.863,778.32 592.778,777.384 592.865,776.466C592.905,776.044 592.924,777.313 592.987,777.733C593.13,778.686 593.158,775.812 593.271,774.855C593.298,774.621 593.396,775.781 593.413,775.546C593.941,768.141 593.573,759.477 593.576,752.754C593.62,659.438 593.632,566.122 593.677,472.806C593.713,396.565 593.764,320.323 593.819,244.082C593.82,242.931 593.837,246.385 593.839,247.536C593.871,267.143 593.897,286.75 593.921,306.357C594.059,419.472 594.137,532.586 594.326,645.701C594.373,673.903 594.479,702.105 594.631,730.307C594.702,743.468 594.736,756.631 595.016,769.79C595.111,774.279 595.016,778.777 595.3,783.258C595.399,784.831 595.31,789.529 595.584,787.977C595.779,786.873 595.546,787.038 595.767,785.79C595.881,785.146 595.796,787.103 595.909,787.747C595.989,788.201 595.805,786.788 595.99,786.366C596.378,785.483 596.21,790.205 596.295,789.244C596.34,788.742 596.403,790.249 596.518,790.74C596.577,790.991 596.608,789.461 596.68,789.359C597.19,788.636 596.797,791.125 596.883,792.006C596.954,792.735 597.009,793.465 597.086,794.193C597.114,794.461 597.023,793.149 597.147,793.388C599.351,797.613 597.722,805.689 598.364,810.539C598.424,810.996 598.365,808.699 598.405,809.158C598.46,809.787 598.36,811.511 598.567,811.805C598.901,812.279 598.723,809.503 598.791,810.079C598.846,810.539 598.881,811.92 598.933,811.46C599.01,810.772 599.005,808.698 599.054,809.388C599.097,810.001 598.949,811.809 599.156,811.23C599.375,810.615 598.881,809.889 599.095,809.273C599.297,808.692 599.134,810.503 599.196,811.115C599.219,811.349 599.159,815.012 599.663,815.719C599.841,815.969 599.651,815.101 599.704,814.798C599.865,813.882 599.683,812.872 600.089,812.035C600.257,811.689 599.915,813.475 600.17,813.187C600.605,812.697 600.276,810.579 600.353,811.23C600.574,813.107 600.65,808.211 600.901,805.359C600.942,804.899 600.873,804.421 601.002,803.978C601.24,803.162 601.159,807.347 601.307,806.51C601.46,805.648 601.353,805.718 601.753,804.208C601.89,803.69 601.834,805.719 601.875,805.129C602.517,795.906 602.773,786.225 602.788,776.927C602.87,724.283 602.844,671.64 602.869,618.996C602.925,500.279 602.97,381.562 603.031,262.845C603.031,262.653 603.052,263.229 603.052,263.421C603.079,274.702 603.099,285.982 603.113,297.263C603.275,427.376 603.367,557.488 603.579,687.601C603.617,710.623 603.719,733.645 603.863,756.667C603.922,766.145 604.039,775.623 604.188,785.1C604.197,785.658 603.739,793.718 604.695,791.316C605.081,790.346 604.787,795.426 605.081,794.424C605.877,791.712 605.42,787.745 605.832,783.488C605.866,783.141 605.937,782.799 605.974,782.452C606.055,781.687 606.057,783.989 606.136,784.754C606.163,785.021 606.162,784.217 606.177,783.949C606.25,782.683 606.296,781.414 606.4,780.15C606.408,780.053 606.578,780.478 606.582,780.38C607.002,770.837 606.781,761.055 606.785,751.603C606.829,659.131 606.843,566.659 606.887,474.187C606.924,397.639 606.975,321.091 607.029,244.543C607.029,244.313 607.048,245.004 607.049,245.234C607.082,258.855 607.11,272.477 607.13,286.098C607.3,404.661 607.395,523.225 607.617,641.788C607.659,664.503 607.745,687.218 607.922,709.933C608.022,722.711 608.263,735.487 608.449,748.264C608.459,748.955 608.439,749.649 608.51,750.336C608.589,751.101 608.538,747.996 608.612,748.84C608.662,749.412 608.627,749.531 608.855,749.531C609.355,749.531 608.906,751.524 608.956,751.027C609.39,746.713 609.055,742.356 609.058,738.02C609.103,677.932 609.123,617.845 609.159,557.757C609.225,447.827 609.269,337.897 609.362,227.967C609.367,222.442 609.415,239.018 609.423,244.543C609.496,295 609.53,345.456 609.606,395.913C609.734,481.171 609.73,566.43 610.235,651.687C610.316,665.347 610.468,679.007 610.641,692.666C610.707,697.887 609.999,697.764 610.945,699.918C612.009,702.342 611.024,694.623 611.026,691.976C611.078,635.534 611.108,579.091 611.148,522.649C611.223,417.937 611.29,313.225 611.371,208.513C611.378,199.304 611.454,226.931 611.473,236.14C611.671,334.828 611.747,433.516 612.041,532.203C612.18,578.861 612.504,625.519 612.771,672.177C612.801,677.475 613.072,701.32 613.177,706.019C613.354,713.925 611.86,722.088 613.887,729.732C614.513,732.094 613.524,746.594 614.638,743.43C615.199,741.836 614.795,746.807 614.882,748.495C614.886,748.576 614.957,748.644 614.963,748.725C614.982,748.993 614.962,749.799 614.983,749.531C615.047,748.712 615.014,748.61 615.206,748.61C617.397,748.61 615.56,744.239 615.572,742.048C615.682,722.595 615.621,703.141 615.632,683.688C615.692,581.894 616.197,452.469 616.444,554.419C616.506,579.926 616.897,648.256 617.296,680.465C617.387,687.833 610.374,702.566 617.743,702.566C619.701,702.566 617.94,698.653 617.946,696.695C618.028,670.872 618.009,645.049 618.027,619.226C618.124,480.25 618.17,341.273 618.291,202.297C618.297,195.697 618.357,215.496 618.372,222.096C618.621,334.137 618.757,446.178 619.082,558.218C619.176,590.794 619.377,623.37 619.63,655.946C619.729,668.686 619.927,681.425 620.137,694.163C620.229,699.759 620.573,711.769 620.888,717.875C620.898,718.072 621.005,717.104 621.03,717.3C621.421,720.387 621.346,723.516 621.497,726.624C621.51,726.89 621.422,725.042 621.578,726.163C622.276,731.183 621.916,736.293 622.105,741.358C622.253,745.314 622.355,749.282 622.816,753.214C622.968,754.511 622.384,756.902 623.201,757.934C623.392,758.175 623.197,756.707 623.221,757.013C623.245,757.315 623.165,756.667 623.485,756.667C624.563,756.667 623.592,760.958 623.749,759.891C623.816,759.435 623.72,758.057 623.81,758.509C623.96,759.263 623.879,760.044 623.932,760.811C623.94,760.931 624.027,760.346 624.033,760.466C624.374,767.283 624.445,769.856 624.764,776.006C624.794,776.582 624.759,777.163 624.845,777.733C624.906,778.136 624.929,776.673 624.946,776.697C625.493,777.473 625.5,786.031 625.514,786.251C625.768,790.128 625.655,796.278 626.448,802.366C626.552,803.167 626.573,800.756 626.61,799.949C626.74,797.077 626.455,797.288 626.854,794.654C627.039,793.431 627.135,797.111 627.3,798.337C627.372,798.873 627.234,796.257 627.503,796.726C627.72,797.104 627.605,800.149 627.929,797.992C628.054,797.156 627.924,801.357 628.071,800.524C628.164,799.994 628.115,798.378 628.172,798.913C628.387,800.938 628.334,800.821 628.457,802.827C628.586,804.936 628.651,798.607 628.741,796.496C628.751,796.264 628.802,797.415 628.842,797.186C628.889,796.915 628.849,794.802 629.004,795.46C629.962,799.526 629.625,802.374 630.202,809.388C630.221,809.618 630.215,808.468 630.242,808.697C630.253,808.787 630.181,813.836 630.567,812.381C630.666,812.007 630.418,813.786 630.709,813.532C631.04,813.244 630.975,813.15 631.176,813.532C634.713,820.257 631.565,798.339 631.602,790.74C631.721,766.337 631.651,741.933 631.663,717.53C631.739,564.127 631.774,410.723 631.866,257.32C631.871,249.416 631.915,273.129 631.926,281.033C632.124,419.28 632.232,557.527 632.495,695.774C632.589,745.165 633.662,786.518 635.964,833.561C635.973,833.753 635.96,832.795 635.985,832.985C636.167,834.356 636.086,835.749 636.167,837.129C636.185,837.436 636.086,835.937 636.228,836.209C638.247,840.078 636.989,846.498 637.202,850.137C637.218,850.407 637.227,849.595 637.283,849.331C637.297,849.265 637.48,849.398 637.486,849.331C637.554,848.603 637.522,847.864 637.649,847.144C637.702,846.841 637.401,848.065 637.709,848.065C638.362,848.065 637.698,846.751 637.811,846.108C637.965,845.234 638.008,844.343 638.095,843.46C638.275,841.622 638.359,847.145 638.501,848.986C638.56,849.755 638.648,850.521 638.724,851.288C638.732,851.371 638.82,850.974 638.825,851.058C639.072,855.513 639.123,860.862 639.759,865.216C639.84,865.767 640.12,863.054 640.205,863.605C640.472,865.335 640.884,870.878 641.098,869.36C641.184,868.749 641.019,870.643 641.281,871.202C641.478,871.622 640.999,869.821 641.463,869.821C641.479,869.821 641.545,874.08 641.687,874.08C641.994,874.08 641.675,872.854 641.707,873.159C642.315,878.929 641.995,882.566 642.782,887.317C642.789,887.362 643.492,886.924 644.142,890.425C644.212,890.803 644.123,889.65 644.203,889.274C644.31,888.767 644.246,890.575 644.304,890.08C644.421,889.086 644.426,888.082 644.527,887.087C644.589,886.476 644.462,888.332 644.609,888.929C644.729,889.415 644.666,886.934 644.71,887.432C644.738,887.754 645.105,887.426 645.136,887.778C645.183,888.315 644.922,885.761 645.278,886.166C645.679,886.622 645.684,891.774 645.704,892.037C645.719,892.229 645.681,891.274 645.725,891.461C645.942,892.386 645.602,892.497 645.907,892.497C646.021,892.497 645.989,894.047 646.009,893.879C646.157,892.629 646.171,892.753 646.333,891.461C646.448,890.541 646.223,895.043 646.658,894.224C647.111,893.37 646.599,893.437 646.759,892.382C646.852,891.77 646.918,894.839 646.983,894.224C647.05,893.592 647.113,894.715 647.206,895.375C647.308,896.1 647.316,893.914 647.409,893.188C647.512,892.388 647.498,894.8 647.551,895.605C647.601,896.372 647.621,894.07 647.673,893.303C647.723,892.575 647.577,894.778 647.733,895.49C647.756,895.593 647.867,891.51 647.957,892.267C648.048,893.03 647.747,893.806 647.835,894.569C647.91,895.219 647.892,893.258 647.997,892.612C648.145,891.703 648.097,891.828 648.16,891.001C648.204,890.426 648.181,892.16 648.281,892.728C648.388,893.334 648.218,891.467 648.423,890.886C648.68,890.159 648.491,892.437 648.667,893.188C648.799,893.752 648.487,891.896 648.87,891.461C649.278,890.997 648.866,893.885 649.073,893.303C649.269,892.752 648.865,890.715 649.336,892.037C649.942,893.737 649.506,888.431 649.58,886.627C649.71,883.442 649.815,880.257 649.965,877.073C649.976,876.831 650.127,877.997 650.189,877.763C650.278,877.427 650.193,876.4 650.31,876.727C650.567,877.448 650.173,879.48 650.574,878.109C650.791,877.366 650.783,879.643 650.879,880.411C650.941,880.907 650.48,878.914 650.98,878.914C651.558,878.914 651.034,881.209 651.142,880.641C651.869,876.809 651.399,876.914 651.731,870.857C651.79,869.78 651.677,868.652 652.035,867.634C652.133,867.354 652.079,869.58 652.116,869.015C652.443,864.078 652.065,859.105 652.745,855.892C652.76,855.823 652.839,856.942 652.908,857.389C652.936,857.572 653.304,863.321 653.719,865.677C653.779,866.018 653.755,866.37 653.801,866.713C653.847,867.062 653.861,865.355 654.003,865.677C654.143,865.993 654.007,867.058 654.024,866.713C654.379,859.308 654.662,851.901 655.018,844.496C655.031,844.225 655.122,845.573 655.14,845.302C655.179,844.728 655.115,844.145 655.201,843.576C655.253,843.234 655.248,844.957 655.282,844.612C655.645,840.884 655.288,837.96 656.134,840.352C656.659,841.837 656.307,837.207 656.357,835.633C656.492,831.336 656.592,827.038 656.722,822.741C656.962,814.809 657.484,813.117 657.818,808.237C657.865,807.544 657.944,809.621 658.041,810.309C658.074,810.545 658.21,810.761 658.224,810.999C658.294,812.15 658.305,815.601 658.407,814.453C658.523,813.153 658.115,811.836 658.265,810.539C658.402,809.356 658.375,812.918 658.447,814.107C658.452,814.185 658.519,815.693 658.731,816.41C658.853,816.821 658.899,815.568 658.955,815.143C659.047,814.451 658.561,817.215 659.259,817.215C659.653,817.215 659.413,816.442 659.523,816.064C659.932,814.661 659.711,818.98 659.807,820.438C659.852,821.13 659.931,821.819 659.989,822.51C660.041,823.128 660.211,821.287 660.253,820.669C660.332,819.514 660.503,825.272 660.639,824.122C660.694,823.662 660.74,823.2 660.801,822.741C660.867,822.245 660.757,820.772 660.923,821.244C661.09,821.719 660.999,821.619 661.166,822.05C661.334,822.483 661.293,823.892 661.349,823.431C662.108,817.222 661.386,811.731 662.404,807.316C662.466,807.049 662.385,807.917 662.566,808.122C662.908,808.51 662.907,806.112 662.972,806.625C663.059,807.312 663.07,808.007 663.135,808.697C663.185,809.233 663.179,807.621 663.236,807.086C663.277,806.7 663.281,808.6 663.419,808.237C663.598,807.766 663.513,807.411 663.682,807.891C664.002,808.798 663.83,805.973 663.906,805.014C663.924,804.784 663.834,805.515 663.967,805.704C664.52,806.49 664.02,803.779 664.149,802.827C664.185,802.56 664.121,803.886 664.21,803.632C664.35,803.233 664.199,801.95 664.271,802.366C664.435,803.314 664.499,805.193 664.677,803.517C664.783,802.52 664.404,807.33 664.981,806.51C665.097,806.346 665.158,806.136 665.164,805.935C666.919,751.412 665.445,690.294 665.468,640.867C665.526,515.013 665.568,389.16 665.63,263.306C665.631,261.656 665.649,266.606 665.651,268.256C665.69,308.89 665.714,349.523 665.752,390.157C665.875,522.227 665.805,654.297 666.341,786.366C666.383,796.649 666.472,806.932 666.584,817.215C666.7,827.869 666.449,845.804 667.68,853.935C667.741,854.337 667.502,851.64 667.761,853.13C668.422,856.931 667.875,859.115 668.349,859.115C669.425,859.115 668.473,861.264 668.552,862.338C668.589,862.842 668.709,864.333 668.796,863.835C668.998,862.682 668.934,862.83 669.06,861.763C669.109,861.343 669.082,863.448 669.141,863.029C669.175,862.789 669.197,862.501 669.384,863.259C669.494,863.706 669.296,862.32 669.425,861.878C669.545,861.468 669.486,863.547 669.628,863.144C669.719,862.888 669.707,862.07 669.75,862.338C669.931,863.467 669.967,863.336 670.135,864.526C670.216,865.099 670.047,866.763 670.318,866.252C670.79,865.363 670.541,865.442 670.541,865.446C670.973,870.345 670.548,870.178 671.089,875.231C671.163,875.919 671.158,873.849 671.211,873.159C671.232,872.89 671.274,872.622 671.292,872.353C671.44,870.124 671.931,861.676 672.225,857.389C672.617,851.669 673.28,841.335 673.402,842.194C673.516,842.993 673.506,840.582 673.564,839.777C673.606,839.202 673.648,838.626 673.666,838.05C673.81,833.369 673.917,828.687 674.072,824.007C674.078,823.815 674.092,824.773 674.112,824.582C674.191,823.822 674.466,818.533 674.477,818.366C674.5,818.019 674.483,819.074 674.599,819.402C674.855,820.128 674.574,817.841 674.782,817.1C674.876,816.768 674.687,818.462 674.802,818.136C674.907,817.838 674.983,817.528 675.025,817.215C675.771,811.591 675.418,801.159 675.431,796.15C675.501,770.174 675.479,744.197 675.492,718.221C675.567,569.307 675.599,420.393 675.695,271.479C675.703,259.508 675.742,295.422 675.756,307.393C675.918,443.031 676.008,578.669 676.223,714.307C676.296,760.541 675.312,809.379 678.536,850.367C678.575,850.868 678.551,848.397 678.718,848.871C679.249,850.38 678.904,857.976 679.429,854.511C679.515,853.94 679.493,855.666 679.571,856.238C679.587,856.354 680.246,848.335 680.362,846.684C680.43,845.725 680.476,844.765 680.545,843.806C680.587,843.229 680.608,841.509 680.707,842.079C680.761,842.389 680.546,846.442 681.072,843.46C681.24,842.51 681.13,845.406 681.377,846.338C681.466,846.675 681.199,845.441 681.519,845.302C681.985,845.099 681.725,845.056 681.782,844.612C681.85,844.077 681.83,845.692 681.924,846.223C682.011,846.715 681.886,845.207 682.026,844.727C682.144,844.324 681.986,846.559 682.087,845.993C682.181,845.466 682.368,845.984 682.736,847.029C683.948,850.472 683.087,839.738 683.284,836.093C683.521,831.714 683.841,824.796 684.217,820.554C684.282,819.823 684.312,822.023 684.461,822.741C684.603,823.425 684.665,821.358 684.786,820.669C684.859,820.253 684.588,822.253 684.867,821.935C685.12,821.647 684.686,821.098 684.907,820.784C685.106,820.501 684.854,822.147 684.968,821.82C685.067,821.535 684.855,819.692 685.009,820.554C685.366,822.558 685.397,822.396 685.597,824.467C685.697,825.503 685.8,822.395 685.902,821.359C686.196,818.376 686.199,815.371 686.409,812.381C686.444,811.88 686.404,811.357 686.571,810.884C686.712,810.485 686.462,812.538 686.632,812.151C686.849,811.657 686.541,809.782 686.835,809.503C687.171,809.185 686.9,810.425 686.957,810.884C687.018,811.382 686.787,809.764 687.119,809.388C687.348,809.129 687.108,810.086 687.18,810.424C687.459,811.739 687.287,807.736 687.383,806.395C687.394,806.246 687.746,806.313 687.768,806.165C687.818,805.823 687.783,804.786 687.829,805.129C687.963,806.12 687.681,807.186 688.032,808.122C688.275,808.77 688.1,806.738 688.174,806.05C688.253,805.323 688.273,804.591 688.337,803.863C688.355,803.656 688.372,804.438 688.58,804.438C689.58,804.438 688.645,802.433 688.803,801.445C688.84,801.217 688.691,802.309 688.844,802.136C691.111,799.58 689.134,795.307 689.148,791.891C689.236,770.826 689.198,749.761 689.209,728.696C689.286,573.911 689.305,419.127 689.412,264.342C689.425,246.231 689.473,300.563 689.493,318.674C689.629,443.261 689.696,567.849 689.879,692.436C689.919,719.679 690.025,746.922 690.163,774.164C690.278,796.961 690.338,800.034 690.731,818.482C690.791,821.285 690.983,824.084 691.096,826.885C691.195,829.34 690.75,836.627 691.38,834.252C691.646,833.25 691.398,832.177 691.482,831.144C691.513,830.761 691.445,832.667 691.543,832.295C693.047,826.563 691.991,826.569 692.415,820.554C692.439,820.208 692.402,819.191 692.517,819.518C692.632,819.845 692.566,820.899 692.598,820.554C692.814,818.23 692.872,818.331 693.024,816.87C693.061,816.514 693.265,818.261 693.308,817.906C693.503,816.309 692.709,815.228 693.693,814.107C694.135,813.603 693.562,815.258 693.795,815.258C695.028,815.258 693.726,810.414 694.14,811.575C694.416,812.35 694.302,813.809 694.485,815.949C694.551,816.718 694.596,819.011 694.728,818.251C694.873,817.417 694.373,816.552 694.525,815.719C694.67,814.923 694.619,817.337 694.749,818.136C694.798,818.439 694.566,816.984 694.769,817.215C696.004,818.621 694.135,819.186 695.439,820.669C695.821,821.103 695.33,818.431 695.601,818.942C695.858,819.427 695.889,821.1 695.946,820.554C695.998,820.056 695.855,818.613 696.088,819.057C696.709,820.238 696.271,820.9 696.453,822.626C696.51,823.162 696.527,821.549 696.595,821.014C696.727,819.981 696.804,818.941 696.92,817.906C696.968,817.48 697.034,818.758 697.143,819.172C697.681,821.218 696.371,823.773 697.589,825.503C697.858,825.885 697.752,824.582 697.833,824.122C697.9,823.742 697.827,825.637 697.955,825.273C698.082,824.911 697.917,824.505 697.934,824.122C697.974,823.198 698.051,825.969 698.178,826.885C698.272,827.566 698.2,827.337 698.239,827.921C698.281,828.558 698.192,828.457 698.888,831.604C699.419,834.004 699.132,826.694 699.213,824.237C699.382,819.129 699.669,805.671 699.679,803.402C699.778,781.762 699.729,760.121 699.74,738.48C699.817,581.47 699.837,424.46 699.943,267.45C699.954,251.296 700.005,299.757 700.024,315.911C700.168,441.189 700.239,566.467 700.43,691.745C700.488,729.664 700.124,768.135 701.14,806.165C701.201,808.431 701.416,801.639 701.506,799.373C701.594,797.148 701.632,794.922 701.709,792.697C701.907,786.983 701.885,781.263 701.891,775.546C701.966,705.252 701.955,634.958 701.993,564.664C702.05,458.878 702.074,353.092 702.175,247.306C702.188,233.646 702.236,274.625 702.256,288.285C702.432,408.575 702.53,528.865 702.764,649.155C702.839,687.513 702.759,725.919 704.042,764.265C704.05,764.499 704.143,763.341 704.164,763.574C705.029,773.355 705.325,784.958 705.868,793.618C705.919,794.424 706.011,792.008 706.031,791.2C706.095,788.553 706.185,785.906 706.193,783.258C706.259,760.888 706.242,738.519 706.254,716.149C706.337,558.525 706.37,400.901 706.477,243.277C706.483,234.797 706.544,260.236 706.558,268.716C706.774,396.795 706.897,524.874 707.167,652.953C707.231,683.365 706.196,716.029 708.466,746.768C708.534,747.691 708.639,744.924 708.75,744.005C708.842,743.241 708.775,745.548 708.892,746.308C709.027,747.185 709.096,742.776 709.176,743.66C709.352,745.612 709.346,747.577 709.5,749.531C709.536,749.993 709.557,747.697 709.663,748.149C710.132,750.152 709.729,750.394 710.028,754.711C710.082,755.486 710.345,751.632 710.393,752.408C710.488,753.941 710.166,755.533 710.576,757.013C710.844,757.978 710.742,755.017 710.84,754.02C710.957,752.836 710.9,751.642 710.901,750.452C710.94,713.425 710.962,676.397 710.982,639.37C711.057,502.543 711.103,365.715 711.185,228.888C711.186,227.123 711.222,232.418 711.225,234.183C711.276,265.378 711.304,296.572 711.347,327.767C711.499,437.275 711.405,546.785 712.017,656.292C712.161,681.993 712.426,707.342 712.788,732.955C712.927,742.766 712.248,754.78 713.904,763.114C714.009,763.642 713.467,761.502 714.005,761.502C715.351,761.502 714,764.216 714.289,765.531C714.405,766.056 714.307,764.453 714.37,763.919C714.474,763.04 714.518,765.683 714.573,766.567C714.604,767.069 714.512,764.643 714.776,765.071C715.099,765.594 714.819,766.3 714.878,766.912C715.084,769.053 715.133,762.616 715.182,760.466C715.266,756.822 715.279,753.176 715.284,749.531C715.34,706.863 715.342,664.196 715.365,621.528C715.436,490.571 715.493,359.615 715.568,228.658C715.568,228.313 715.587,229.349 715.588,229.694C715.621,242.816 715.649,255.939 715.669,269.061C715.831,372.89 715.893,476.72 716.136,580.549C716.255,631.342 716.598,678.621 717.313,729.041C717.493,741.727 716.699,759.646 718.753,771.171C719.585,775.837 718.057,782.262 719.403,787.172C719.576,787.803 719.526,785.869 719.545,785.215C719.641,781.916 719.658,778.614 719.748,775.315C719.807,773.166 719.857,771.015 719.991,768.869C720.015,768.483 720.119,770.406 720.133,770.02C720.429,762.049 720.578,762.179 720.6,754.135C720.661,731.804 720.648,709.472 720.661,687.141C720.749,535.388 720.797,383.634 720.904,231.881C720.91,223.785 720.951,248.073 720.965,256.169C721.201,390.195 721.356,524.222 721.655,658.248C721.657,659.346 721.911,709.133 722.243,720.983C722.337,724.325 722.583,727.661 722.791,730.998C722.813,731.345 722.853,731.692 722.913,732.034C723.16,733.431 722.828,730.181 722.994,730.653C723.555,732.247 723.147,734.029 723.238,735.717C723.248,735.909 723.234,734.955 723.278,735.142C723.34,735.407 723.386,736.219 723.4,735.948C724.278,718.473 723.673,700.954 723.684,683.457C723.751,577.204 724.289,442.299 724.536,548.549C724.596,574.219 724.765,599.888 724.922,625.557C725.038,644.512 724.304,663.504 725.51,682.421C725.556,683.15 725.648,680.965 725.652,680.234C725.715,669.529 725.705,658.824 725.713,648.119C725.78,555.954 725.803,463.789 725.876,371.624C725.925,308.928 725.996,246.231 726.079,183.535C726.081,182 726.116,186.604 726.119,188.139C726.176,214.422 726.214,240.706 726.261,266.989C726.444,368.44 726.54,469.891 727.093,571.34C727.348,618.075 727.04,664.819 728.067,711.544C728.339,723.922 728.764,733.168 729.467,746.308C729.488,746.692 729.372,744.804 729.528,745.156C730.541,747.441 730.012,750.482 730.218,752.984C730.281,753.75 730.219,751.441 730.34,750.682C730.406,750.264 730.43,752.371 730.441,751.948C730.471,750.836 730.458,749.722 730.502,748.61C730.535,747.76 730.778,750.292 730.827,751.142C730.97,753.635 731.057,756.131 731.192,758.624C731.223,759.2 731.251,759.777 731.314,760.351C731.373,760.886 731.237,759.259 731.375,758.739C731.681,757.587 731.5,761.12 731.598,762.308C731.682,763.325 731.576,760.634 731.638,760.811C731.682,760.935 731.697,761.233 731.72,761.042C731.884,759.666 731.92,766.565 732.065,765.186C732.44,761.624 731.706,761.601 732.552,759.2C732.686,758.819 732.318,755.564 732.714,756.092C733.245,756.8 732.821,757.859 732.917,758.739C733.005,759.542 733,757.126 733.079,756.322C733.117,755.935 733.133,757.107 733.262,757.473C735.01,762.431 733.459,746.96 733.465,741.703C733.554,666.383 733.525,591.062 733.566,515.742C733.619,418.551 733.672,321.359 733.749,224.168C733.751,221.252 733.785,230.001 733.789,232.917C733.942,348.104 734.006,463.291 734.256,578.477C734.306,601.576 734.409,624.675 734.54,647.773C734.632,663.933 733.522,684.163 735.413,701.184C735.506,702.023 735.471,699.496 735.473,698.652C735.519,674.939 735.537,651.227 735.555,627.514C735.665,483.281 735.722,339.048 735.859,194.815C735.867,185.951 735.922,212.542 735.94,221.406C736.166,333.6 736.275,445.794 736.59,557.988C736.661,583.351 736.851,608.713 737.097,634.075C737.236,648.426 737.514,662.776 737.746,677.126C737.75,677.395 737.538,677.932 737.807,677.932C738.076,677.932 737.825,677.395 737.827,677.126C737.852,672.675 737.883,668.225 737.888,663.774C737.944,614.315 737.97,564.856 738.01,515.397C738.099,405.237 738.162,295.076 738.274,184.916C738.277,181.693 738.328,191.362 738.335,194.585C738.402,226.048 738.437,257.512 738.497,288.975C738.658,373.274 738.766,457.574 739.248,541.872C739.464,579.667 739.682,617.462 739.998,655.256C740.087,665.965 739.406,681.564 740.81,692.436C740.864,692.855 740.857,691.592 740.871,691.17C740.898,690.365 740.926,689.559 740.932,688.753C740.96,684.877 740.969,681.002 740.972,677.126C741.023,616.463 741.052,555.8 741.094,495.137C741.167,391.423 741.236,287.709 741.317,183.995C741.321,179.506 741.391,192.974 741.399,197.463C741.472,240.361 741.508,283.258 741.581,326.156C741.733,415.213 741.784,504.271 742.332,593.326C742.495,619.907 741.648,651.888 743.468,680.35C743.542,681.501 743.607,678.047 743.692,676.896C743.771,675.824 743.791,674.748 743.793,673.673C743.845,651.188 743.856,628.704 743.874,606.219C743.985,466.821 744.043,327.422 744.178,188.024C744.184,181.54 744.249,200.993 744.26,207.477C744.371,272.169 744.422,336.861 744.544,401.553C744.759,515.717 744.173,629.809 748.46,743.89C748.467,744.082 748.471,743.123 748.48,743.315C748.64,746.628 748.477,746.425 748.724,749.761C748.75,750.106 748.439,748.725 748.785,748.725C749.13,748.725 748.79,749.416 748.805,749.761C749.175,758.356 749.525,766.953 749.941,775.546C749.965,776.045 749.966,774.548 749.982,774.049C750.065,771.516 750.09,768.98 750.266,766.452C750.293,766.068 749.962,765.301 750.347,765.301C750.678,765.301 750.892,771.517 751.037,773.704C751.04,773.755 751.249,773.186 751.28,773.704C751.38,775.391 751.389,777.083 751.504,778.769C751.517,778.966 751.623,777.997 751.646,778.193C753.466,793.532 751.826,810.949 754.202,827.115C754.29,827.712 754.139,825.489 754.243,826.079C754.266,826.207 754.417,826.294 754.426,826.424C754.453,826.807 754.432,827.957 754.466,827.575C754.51,827.074 754.626,825.578 754.669,826.079C755.247,832.79 755.136,837.612 755.724,844.612C755.827,845.84 755.908,842.153 756.049,840.928C756.063,840.809 756.143,841.393 756.15,841.273C756.462,835.639 756.489,829.99 756.637,824.352C756.787,818.635 756.943,812.917 757.124,807.201C757.141,806.66 756.996,806.031 757.307,805.589C757.366,805.505 757.283,808.164 757.348,807.891C757.472,807.368 757.193,806.772 757.409,806.28C757.641,805.751 757.49,808.581 757.551,808.007C757.722,806.39 757.348,806.475 757.774,805.014C757.849,804.756 757.77,806.086 757.794,805.819C757.849,805.195 757.926,804.135 758.017,804.899C758.176,806.234 758.11,802.211 758.2,800.87C758.221,800.549 758.429,800.266 758.484,799.949C758.556,799.532 758.512,798.266 758.585,798.683C758.665,799.139 758.666,800.523 758.727,800.064C758.945,798.421 758.779,796.747 759.133,794.539C759.2,794.119 759.155,795.404 759.296,795.805C759.578,796.605 759.47,794.117 759.539,793.272C759.679,791.547 759.732,789.813 759.925,788.093C759.989,787.518 760.056,785.789 760.107,786.366C760.702,793.126 760.717,800.064 761.122,806.855C761.132,807.015 761.254,806.235 761.264,806.395C761.305,807.019 761.264,808.123 761.386,808.812C761.506,809.494 761.424,807.424 761.528,806.74C761.592,806.319 761.616,808.426 761.69,808.007C761.75,807.666 761.405,806.971 761.751,806.971C762.558,806.971 761.655,808.617 761.893,809.388C761.984,809.682 761.863,808.766 761.933,808.467C762.091,807.793 761.995,809.851 762.076,810.539C762.094,810.694 762.123,810.847 762.157,810.999C762.323,811.749 762.062,809.434 762.278,808.697C762.472,808.033 762.343,810.078 762.38,810.769C762.551,813.969 762.323,813.838 762.786,816.985C762.805,817.114 762.944,816.909 763.05,815.949C763.183,814.753 763.477,820.716 763.597,819.518C763.634,819.145 763.632,819.236 763.679,818.942C763.812,818.104 763.661,815.609 763.942,816.41C764.14,816.974 763.496,818.374 764.145,818.942C764.551,819.297 764.218,817.865 764.287,817.33C764.464,815.955 764.531,814.568 764.653,813.187C764.677,812.919 764.625,813.732 764.693,813.992C764.741,814.178 764.71,813.609 764.713,813.417C764.832,805.014 765.037,796.612 765.058,788.208C765.179,740.859 765.116,693.511 765.14,646.162C765.204,519.387 765.254,392.613 765.322,265.838C765.323,264.572 765.34,268.371 765.342,269.637C765.381,301.599 765.409,333.562 765.444,365.524C765.551,462.063 765.615,558.601 765.769,655.14C765.818,685.99 765.918,716.839 766.053,747.689C766.107,760.006 766.2,772.323 766.337,784.639C766.39,789.436 766.309,803.814 766.641,799.028C766.971,794.278 767.005,808.543 767.148,813.302C767.525,825.851 767.829,831.031 768.467,843.691C768.494,844.234 768.628,841.542 768.711,842.079C769.391,846.489 769.265,836.065 769.563,830.223C769.745,826.655 769.464,816.001 770.091,819.518C770.731,823.11 768.405,827.007 769.604,830.453C770.79,833.864 769.948,823.239 770.131,819.633C770.175,818.757 770.558,808.231 770.801,805.704C770.842,805.28 770.671,807.281 770.963,806.971C771.439,806.466 771.007,804.223 771.166,804.899C771.263,805.311 771.139,806.574 771.247,806.165C771.276,806.055 771.322,804.755 771.328,804.783C772.394,809.336 771.643,811.946 771.897,816.064C771.918,816.411 771.943,815.367 772.018,815.028C772.126,814.54 772.025,816.029 772.079,816.525C772.13,816.99 772.269,817.442 772.323,817.906C772.466,819.128 771.881,815.244 772.566,814.222C773.101,813.423 772.553,816.159 772.749,817.1C772.859,817.626 772.736,816.018 772.83,815.489C772.937,814.882 772.758,816.76 772.992,817.33C773.012,817.378 773.043,817.446 773.094,817.446C773.396,817.446 773.578,822.195 773.662,822.856C773.764,823.658 773.596,821.201 773.865,820.438C774.006,820.038 773.913,821.287 773.987,821.705C774.174,822.767 773.745,825.88 774.25,824.928C774.602,824.265 774.36,825.145 774.819,829.647C774.874,830.183 774.802,827.515 774.94,828.036C775.058,828.481 774.858,828.958 774.9,829.417C774.945,829.915 774.981,827.422 775.021,827.921C775.071,828.533 775.034,829.15 775.082,829.762C775.098,829.967 775.284,830.133 775.306,830.338C775.555,832.692 775.481,834.426 775.61,836.899C775.648,837.631 775.685,839.8 775.853,839.086C776.571,836.028 776.146,839.887 776.178,840.007C776.554,841.426 776.531,837.093 776.685,835.633C776.717,835.327 776.703,836.859 776.746,836.554C776.864,835.717 776.341,833.33 776.827,834.021C777.38,834.806 776.819,835.948 776.949,836.899C777.168,838.499 777.137,833.674 777.274,832.065C777.31,831.644 777.186,833.739 777.294,833.331C777.421,832.848 777.3,832.332 777.335,831.834C777.365,831.407 777.483,833.525 777.538,833.101C777.745,831.502 777.503,831.692 777.761,830.223C777.947,829.163 777.811,832.38 777.964,833.446C778.024,833.867 778.06,831.76 778.126,832.18C778.185,832.56 778.173,833.393 778.288,832.87C778.601,831.442 778.43,835.792 778.593,837.244C778.657,837.818 778.634,839.54 778.735,838.971C778.777,838.733 778.808,837.364 778.877,837.129C779.067,836.479 778.712,838.663 779.019,838.165C779.467,837.44 779.104,838.538 779.283,839.777C779.36,840.31 779.347,838.701 779.404,838.165C779.436,837.859 779.411,838.783 779.465,839.086C779.739,840.636 779.555,835.939 779.628,834.367C779.63,834.32 779.707,834.299 779.709,834.252C779.778,832.87 779.577,828.771 779.932,830.108C780.579,832.546 780.792,819.81 780.926,816.064C781.432,801.949 781.323,802.145 781.332,787.862C781.389,701.53 781.394,615.197 781.434,528.865C781.475,441.611 781.521,354.358 781.576,267.104C781.577,266.26 781.595,268.793 781.596,269.637C781.629,293.196 781.652,316.755 781.677,340.314C781.826,482.744 781.692,625.175 782.306,767.603C782.351,777.963 782.43,788.323 782.55,798.683C782.613,804.132 782.731,809.58 782.854,815.028C782.944,818.992 783.81,830.134 783.828,830.223C784.161,831.845 784.236,833.916 784.254,834.252C784.276,834.674 784.124,835.904 784.295,835.518C784.689,834.625 784.08,834.643 784.376,833.791C784.54,833.318 784.432,834.792 784.498,835.288C784.534,835.556 784.589,834.211 784.599,834.482C784.627,835.211 784.618,837.397 784.66,836.669C784.698,836.017 784.308,835.2 784.741,834.712C785.229,834.162 784.866,837.617 785.025,836.899C785.333,835.507 785.327,839.735 785.411,841.158C785.438,841.618 785.387,839.321 785.451,839.777C785.712,841.626 785.445,843.756 785.959,845.878C786.439,847.86 786.2,841.804 786.425,839.777C786.497,839.129 786.371,841.089 786.466,841.734C786.528,842.152 786.505,840.89 786.527,840.468C786.593,839.163 786.489,837.838 786.73,836.554C786.857,835.874 786.811,837.936 786.872,838.626C786.893,838.862 786.993,837.702 787.034,837.935C787.148,838.579 787.014,839.258 787.176,839.892C787.255,840.2 787.171,840.089 787.237,840.468C787.316,840.923 787.052,838.709 787.318,839.086C787.628,839.526 787.305,840.168 787.399,840.698C787.526,841.418 787.322,837.821 787.562,838.511C788.227,840.424 787.367,837.955 788.15,835.173C788.279,834.716 788.431,837.024 788.495,836.554C788.855,833.931 788.912,827.704 789.225,823.892C789.232,823.808 789.314,824.205 789.327,824.122C790.104,819.083 789.729,814.951 790.017,812.151C790.151,810.851 790.138,814.762 790.24,816.064C790.245,816.131 790.435,815.997 790.443,816.064C790.463,816.234 790.48,817.347 790.484,817.33C790.782,816.057 790.889,814.458 791.052,811.69C791.07,811.381 791.119,812.916 791.173,812.611C791.3,811.891 791.258,811.149 791.356,810.424C791.387,810.196 791.364,811.345 791.376,811.115C791.413,810.425 791.389,808.354 791.437,809.043C791.453,809.274 791.409,809.938 791.518,809.733C792.041,808.748 791.428,807.465 791.742,806.395C792.035,805.398 791.498,808.585 791.985,809.503C792.217,809.941 792.104,809.779 792.168,810.194C792.239,810.654 792.168,808.393 792.371,808.812C793.046,810.205 792.411,810.167 792.736,811.805C792.797,812.113 792.625,810.884 792.939,810.884C793.094,810.884 793.17,813.92 793.284,814.568C793.355,814.972 793.301,813.145 793.345,813.762C793.383,814.298 793.314,815.907 793.385,815.374C793.986,810.84 793.905,800.83 793.913,796.956C793.998,754.212 793.973,711.467 793.994,668.723C794.061,535.963 794.109,403.203 794.177,270.443C794.177,269.637 794.196,272.054 794.197,272.86C794.229,294.616 794.253,316.371 794.278,338.127C794.409,452.738 794.483,567.35 794.664,681.961C794.724,719.948 794.779,757.936 795.272,795.92C795.414,806.844 795.38,813.746 796.327,820.899C797.353,828.651 796.82,836.592 797.646,844.381C797.691,844.802 797.703,843.537 797.728,843.115C797.737,842.956 797.832,843.734 797.849,843.576C798.081,841.37 798.006,840.194 798.275,838.05C798.328,837.626 798.403,839.737 798.478,839.316C798.546,838.935 798.607,837.779 798.641,838.165C798.678,838.586 798.628,839.848 798.702,839.432C799.504,834.935 798.968,830.299 799.107,825.733C799.154,824.198 799.199,822.663 799.27,821.129C799.293,820.629 799.305,819.14 799.391,819.633C799.49,820.2 799.117,820.816 799.31,821.359C799.517,821.939 799.371,818.908 799.452,819.518C799.762,821.853 799.649,818.906 799.878,814.913C799.881,814.852 800.05,814.853 800.061,814.913C800.343,816.5 800.18,811.691 800.203,810.079C800.264,805.858 800.335,801.637 800.345,797.416C800.403,773.243 800.393,749.07 800.406,724.897C800.488,571.916 800.529,418.934 800.629,265.953C800.634,257.588 800.677,282.682 800.69,291.047C800.894,426.033 801.004,561.018 801.279,696.004C801.315,713.731 801.424,731.459 801.623,749.185C801.708,756.745 801.933,764.304 802.131,771.862C802.169,773.322 802.29,774.779 802.395,776.236C802.453,777.041 802.495,777.848 802.557,778.653C802.599,779.191 802.625,780.797 802.719,780.265C802.862,779.452 803.031,779.593 803.45,777.617C803.53,777.241 803.457,778.385 803.47,778.769C803.482,779.117 803.543,777.389 803.592,777.733C803.721,778.646 803.678,779.575 803.734,780.495C803.769,781.07 803.715,779.336 803.815,778.769C803.863,778.499 803.88,780.448 803.916,780.38C804.527,779.228 801.511,775.891 804.221,775.891C805.451,775.891 804.373,778.347 804.464,779.574C804.617,781.644 804.723,783.718 804.85,785.79C804.884,786.348 805.261,786.845 805.317,787.402C805.52,789.435 805.234,795.433 805.905,793.503C806.588,791.538 805.001,789.336 805.357,787.287C805.707,785.275 805.699,791.358 805.925,793.388C805.955,793.655 805.677,792.582 805.946,792.582C806.677,792.582 805.794,794.1 806.088,794.769C806.33,795.321 805.884,791.889 806.291,792.467C806.535,792.813 806.137,793.316 806.209,793.733C806.275,794.112 806.27,792.965 806.311,792.582C806.352,792.198 806.355,793.355 806.433,793.733C806.504,794.076 806.474,792.376 806.615,792.697C807.228,794.094 806.045,797.826 807.041,794.999C807.256,794.389 806.888,797.074 807.102,796.265C807.703,793.988 806.717,789.67 807.65,792.352C808.558,794.962 808.04,799.492 808.178,802.136C808.311,804.669 808.927,810.76 809.192,812.266C809.319,812.988 809.35,813.725 809.436,814.453C809.508,815.066 809.553,816.905 809.639,816.294C809.652,816.201 809.793,815.971 809.801,816.064C809.876,816.907 809.774,819.417 809.984,818.597C812.407,809.129 811.209,793.172 811.242,781.531C811.391,729.348 811.297,677.165 811.323,624.982C811.384,503.234 811.436,381.485 811.505,259.737C811.506,258.202 811.524,262.807 811.526,264.342C811.572,306.089 811.6,347.835 811.647,389.582C811.776,504.308 811.696,619.036 812.256,733.761C812.38,759.224 812.404,765.568 812.966,787.172C812.967,787.213 813.086,787.131 813.088,787.172C813.181,788.781 813.141,790.396 813.21,792.006C813.23,792.467 813.231,791.079 813.311,790.625C813.412,790.056 813.182,792.862 813.453,792.352C813.723,791.843 813.479,791.199 813.535,790.625C813.641,789.553 813.608,794.914 813.758,793.848C813.872,793.038 813.825,793.139 814.123,792.467C814.933,790.641 814.194,796.47 814.448,798.452C814.585,799.525 814.523,797.389 814.569,797.647C815.064,800.425 813.986,800.503 815.158,803.172C815.374,803.664 815.174,802.097 815.198,801.56C815.271,799.949 815.328,798.337 815.401,796.726C815.525,793.994 815.16,794.079 815.767,791.431C815.853,791.056 815.781,792.203 815.848,792.582C815.915,792.961 815.821,791.8 815.929,791.431C816.009,791.158 816.163,792.516 816.213,792.236C817.698,783.838 816.696,772.629 816.7,764.725C816.744,680.273 816.758,595.82 816.801,511.368C816.846,423.961 816.902,336.554 816.964,249.147C816.965,248.226 816.982,250.989 816.984,251.91C817.023,275.814 817.056,299.719 817.086,323.623C817.249,451.242 817.112,578.862 817.775,706.479C817.966,743.233 818.542,780.034 820.231,816.755C820.332,818.96 820.63,819.603 821.103,824.582C821.183,825.424 821.175,822.892 821.245,822.05C821.47,819.331 821.609,816.604 821.712,813.877C821.715,813.805 821.888,814.064 821.895,813.992C821.942,813.532 821.936,812.156 822.016,812.611C822.674,816.344 823.021,816.16 823.031,816.064C823.218,814.322 823.222,814.439 823.315,812.611C823.451,809.925 823.55,801.87 823.741,804.553C823.778,805.066 823.636,803.421 824.025,803.863C824.982,804.952 824.231,806.539 824.309,807.316C824.369,807.914 824.288,805.395 824.39,806.165C824.442,806.555 824.742,806.294 824.776,806.74C824.933,808.773 824.848,814.849 825.202,812.841C825.269,812.463 825.223,811.308 825.263,811.69C825.348,812.495 825.435,814.914 825.486,814.107C825.797,809.162 825.921,804.206 826.176,799.258C826.187,799.047 826.233,800.42 826.237,800.409C826.4,799.947 826.237,799.541 826.379,799.949C826.505,800.312 826.399,798.418 826.46,798.798C826.588,799.595 826.492,800.413 826.582,801.215C826.594,801.326 826.636,801.259 826.643,801.33C826.684,801.751 826.605,799.658 826.724,800.064C827.111,801.384 826.547,801.352 827.028,802.711C827.069,802.826 827.138,802.245 827.15,802.366C827.255,803.398 827.211,804.442 827.312,805.474C827.346,805.818 827.317,804.094 827.353,804.438C827.481,805.651 827.267,806.254 827.475,807.431C827.511,807.634 827.673,806.651 827.698,806.855C827.8,807.695 827.8,808.544 827.86,809.388C827.888,809.772 827.782,810.879 827.962,810.539C828.951,808.675 828.48,815.035 828.773,817.676C828.841,818.288 828.299,815.834 828.915,815.834C829.414,815.834 828.869,816.839 828.956,817.33C829.003,817.596 829.021,816.794 829.037,816.525C829.109,815.336 829.098,814.141 829.22,812.956C829.233,812.834 829.263,812.921 829.281,812.726C829.312,812.381 829.349,814.108 829.362,813.762C829.404,812.624 829.443,812.611 829.646,812.611C830.762,812.611 829.736,810.378 829.889,809.273C829.926,809.007 829.884,810.344 829.93,810.079C830.166,808.724 830.065,808.122 830.194,808.122C831.616,808.122 830.343,805.283 830.417,803.863C830.799,796.501 830.309,793.008 831.635,787.747C831.776,787.187 831.666,788.907 831.777,789.474C831.821,789.701 831.784,788.558 831.837,788.783C831.872,788.932 831.839,790.886 831.898,790.97C832.097,791.253 831.927,790.279 831.939,789.934C832.055,786.634 832.243,783.336 832.284,780.035C832.371,772.976 832.321,765.915 832.324,758.855C832.368,668.11 832.382,577.364 832.426,486.619C832.463,410.531 832.513,334.444 832.568,258.356C832.569,256.668 832.586,261.733 832.588,263.421C832.634,306.971 832.663,350.521 832.71,394.071C832.805,483.32 832.862,572.568 833.014,661.817C833.088,705.348 831.806,761.381 834.597,805.359C834.621,805.742 834.571,804.586 834.638,804.208C834.759,803.527 834.629,805.595 834.719,806.28C834.784,806.777 834.695,804.31 834.861,804.783C835.215,805.793 834.797,805.682 834.962,806.625C835.042,807.08 834.758,804.899 835.064,805.244C835.294,805.503 834.957,806.571 835.145,806.28C835.396,805.891 834.824,804.899 835.287,804.899C835.747,804.899 835.005,806.627 835.307,806.28C835.635,805.903 835.28,805.271 835.388,804.783C835.649,803.604 835.858,809.55 836.017,808.352C836.429,805.248 835.856,805.391 836.565,802.366C836.705,801.767 836.621,804.821 836.667,804.208C836.756,803.035 836.651,802.708 836.768,801.56C836.819,801.063 836.723,803.549 836.809,803.057C836.936,802.336 836.927,800.143 837.012,800.87C837.133,801.9 837.088,802.944 837.174,803.978C837.199,804.284 837.171,802.751 837.194,803.057C837.378,805.484 837.457,805.237 837.742,807.431C837.826,808.079 837.6,804.876 837.864,805.474C838.035,805.862 837.932,806.319 837.986,806.74C838.054,807.274 837.882,808.85 838.087,808.352C838.697,806.87 838.217,806.163 838.351,804.899C838.441,804.05 838.624,808.277 838.736,807.431C839.45,802.038 839.016,796.028 839.021,790.51C839.06,748.994 839.081,707.477 839.102,665.961C839.169,529.978 839.208,393.994 839.284,258.011C839.285,255.901 839.322,262.232 839.325,264.342C839.377,303.671 839.401,343.001 839.447,382.33C839.543,464.518 839.604,546.707 839.751,628.895C839.806,659.783 839.915,690.671 840.055,721.559C840.111,733.876 840.18,746.193 840.34,758.509C840.6,778.554 839.982,778.481 841.171,789.704C841.236,790.318 841.247,788.47 841.354,787.862C841.5,787.03 841.429,786.174 841.476,785.33C841.588,783.332 841.811,789.318 841.922,791.316C842.041,793.453 841.731,806.823 842.612,801.791C842.971,799.743 842.971,810.081 843.119,808.007C843.272,805.86 842.62,803.71 842.734,801.56C842.828,799.791 842.994,805.094 843.18,806.855C843.204,807.084 843.168,805.941 843.221,806.165C843.361,806.763 843.237,807.396 843.302,808.007C843.355,808.503 843.141,806.966 843.343,806.51C843.372,806.445 843.074,810.677 843.688,807.891C843.903,806.914 843.861,809.885 843.911,810.884C844.291,818.442 844.585,826.005 845.007,833.561C845.037,834.098 845.033,832.484 845.088,831.949C845.143,831.412 845.18,833.026 845.25,833.561C845.34,834.25 845.314,830.813 845.473,831.489C846.063,834 845.785,838.321 846.183,842.079C846.193,842.176 846.355,841.752 846.366,841.849C846.585,843.776 846.162,843.63 846.65,845.302C846.747,845.636 846.747,843.919 846.772,844.266C846.855,845.415 846.818,846.572 846.914,847.72C846.949,848.141 846.906,846.873 846.955,846.453C846.985,846.2 847.255,847.397 847.279,847.144C847.521,844.596 847.491,844.73 847.563,840.813C847.751,830.53 847.994,820.247 848.03,809.963C848.177,767.565 848.09,725.166 848.111,682.767C848.178,543.944 848.217,405.122 848.294,266.299C848.297,261.349 848.329,276.198 848.334,281.148C848.404,353.591 848.433,426.033 848.517,498.476C848.589,560.52 848.659,622.565 848.801,684.609C848.855,708.475 848.92,732.342 849.105,756.207C849.208,769.485 847.042,783.054 849.836,796.035C849.865,796.169 850.043,795.554 850.059,795.69C850.165,796.567 849.787,799.118 850.201,798.337C850.633,797.523 850.076,796.495 850.12,795.575C850.144,795.075 850.222,797.57 850.262,797.071C850.525,793.812 850.765,784.024 850.972,787.287C851.546,796.34 852.1,805.394 852.555,814.453C852.611,815.57 852.256,818.706 852.9,817.791C853.166,817.413 852.904,816.857 853.022,816.41C853.16,815.889 852.808,818.426 853.164,818.021C853.195,817.986 853.272,816.269 853.346,816.41C853.561,816.818 853.325,816.652 853.387,816.294C853.48,815.76 853.478,818.436 853.59,817.906C853.786,816.98 853.61,817.188 853.752,816.064C853.984,814.235 853.87,819.749 853.955,821.59C853.973,821.98 854.105,820.824 854.158,820.438C854.335,819.145 854.227,823.049 854.3,824.352C854.317,824.659 854.289,823.125 854.32,823.431C855.078,830.889 854.717,838.417 855.396,845.878C855.427,846.222 855.321,844.516 855.436,844.842C855.539,845.133 855.484,845.459 855.538,845.763C855.973,848.222 855.316,851.025 856.106,853.705C856.193,854.001 856.16,852.477 856.187,852.784C856.329,854.393 856.184,854.226 856.349,855.892C856.383,856.237 856.288,855.163 856.451,854.856C856.585,854.604 856.511,856.471 856.613,856.123C856.777,855.566 856.564,853.883 856.836,854.396C857.485,855.619 857.156,858.84 857.242,860.497C857.252,860.693 857.355,859.725 857.364,859.921C857.688,866.686 857.62,868.948 858.135,873.159C859.178,881.694 858.635,855.969 858.866,847.374C858.898,846.165 859.177,844.806 859.312,846.223C859.33,846.414 859.324,845.84 859.332,845.648C859.54,840.66 859.746,835.671 859.961,830.683C860.167,825.896 860.374,826.144 860.59,821.244C860.625,820.453 860.514,821.938 861.016,822.51C861.295,822.827 861.05,821.666 861.077,821.244C861.087,821.086 861.338,821.043 861.402,820.899C862.197,819.106 861.796,814.391 861.93,812.266C861.978,811.501 861.934,807.002 862.599,803.863C862.727,803.257 862.796,806.321 862.843,805.704C862.885,805.152 863.148,806.961 863.228,806.51C863.265,806.302 863.304,807.668 863.309,807.661C864.151,806.465 863.366,804.721 863.654,803.287C863.715,802.982 863.685,802.076 863.796,802.366C864.387,803.913 864.082,802.149 864.202,799.949C864.225,799.526 864.278,800.792 864.304,801.215C864.362,802.136 864.381,803.059 864.466,803.978C864.484,804.174 864.477,802.779 864.507,802.711C864.669,802.346 864.857,802.574 864.872,802.251C864.891,801.827 864.92,803.099 864.994,803.517C865.114,804.2 865.122,804.899 865.197,805.589C865.43,807.726 865.328,801.292 865.399,799.143C865.621,792.467 865.981,785.793 866.008,779.114C866.11,754.135 866.057,729.156 866.069,704.177C866.139,555.263 866.154,406.349 866.252,257.435C866.262,242.164 866.316,287.978 866.333,303.249C866.471,428.489 866.531,553.728 866.718,678.968C866.761,707.669 866.845,736.37 867.023,765.071C867.131,782.492 866.592,799.945 867.713,817.33C868.082,823.046 868.405,828.765 868.768,834.482C868.783,834.712 868.794,833.561 868.808,833.791C868.852,834.535 868.368,841.916 869.133,838.28C869.458,836.737 869.352,841.427 869.458,843C869.492,843.503 869.478,841.965 869.681,841.504C869.774,841.293 869.677,842.423 869.701,842.194C870.022,839.162 869.749,838.129 870.006,836.669C870.233,835.38 870.082,841.872 870.31,840.583C870.573,839.094 870.277,843.137 870.675,844.266C870.93,844.99 870.644,842.72 870.777,841.964C870.844,841.583 870.89,842.73 870.919,843.115C871.097,845.455 871.108,848.178 871.426,850.597C871.448,850.763 871.748,850.09 871.791,850.252C872.373,852.448 871.745,854.861 872.38,857.043C872.681,858.077 872.503,854.893 872.583,853.82C872.623,853.279 872.628,851.697 872.806,852.209C872.92,852.536 872.688,853.528 872.887,853.245C873.374,852.553 872.832,849.894 873.049,850.712C873.197,851.269 872.916,851.865 872.968,852.439C873.013,852.937 873.012,851.439 873.07,850.943C873.17,850.092 873.232,849.219 873.516,848.41C873.669,847.974 873.279,850.082 873.638,849.791C874.608,849.005 873.317,850.827 874.003,850.827C874.361,850.827 874.3,844.429 874.551,843C874.561,842.945 874.665,843.17 874.673,843.115C874.746,842.579 874.605,841.025 874.855,841.504C875.674,843.074 874.728,841.216 875.038,839.432C876.379,831.723 874.595,826.013 876.174,819.057C876.387,818.121 876.176,820.98 876.276,821.935C876.332,822.47 876.302,820.86 876.336,820.323C876.497,817.755 876.598,815.183 876.681,812.611C876.687,812.415 876.782,813.382 876.803,813.187C876.858,812.673 876.887,808.645 876.986,809.388C877.361,812.213 877.073,812.066 877.371,814.913C877.411,815.295 877.377,814.145 877.392,813.762C877.553,809.771 877.716,805.781 877.899,801.791C877.917,801.4 877.911,802.154 878.142,803.978C878.302,805.239 878.316,801.439 878.487,800.179C878.565,799.607 878.345,801.329 878.366,801.906C878.389,802.523 878.483,799.452 878.569,800.064C879.151,804.194 878.972,806.062 879.624,809.733C879.831,810.901 879.294,816.277 879.928,813.877C880.027,813.501 879.861,815.673 879.969,814.913C880.067,814.228 879.95,813.522 880.07,812.841C880.105,812.644 880.352,817.895 880.496,818.021C881.05,818.503 880.686,815.103 880.76,815.834C880.887,817.097 880.933,818.368 881.044,819.633C881.098,820.245 880.997,818.392 881.125,817.791C881.341,816.774 881.146,819.884 881.369,820.899C881.385,820.971 881.42,819.668 881.491,819.748C882.027,820.352 881.516,821.372 881.673,822.165C881.725,822.429 881.515,821.56 881.693,821.359C882.408,820.553 881.846,823.51 881.957,824.582C882.056,825.541 882.162,820.745 882.241,821.705C882.307,822.509 882.203,823.328 882.343,824.122C882.417,824.539 882.305,822.456 882.444,822.856C882.595,823.291 882.369,823.776 882.383,824.237C882.398,824.737 882.47,822.242 882.505,822.741C882.684,825.282 883.101,828.332 883.114,828.496C883.134,828.746 883.219,832.759 883.52,833.101C884.438,834.147 883.709,827.602 884.027,828.957C884.619,831.479 884.409,831.337 884.697,834.597C884.731,834.98 884.698,833.066 884.757,833.446C884.832,833.93 884.684,833.716 884.818,833.331C885.64,830.966 884.734,834.482 884.94,834.482C885.71,834.482 885.039,832.943 885.143,832.18C885.174,831.952 885.087,833.087 885.163,832.87C885.316,832.435 885.18,831.032 885.244,831.489C885.314,831.989 885.278,832.423 885.488,831.949C885.691,831.491 885.567,832.949 885.63,833.446C885.673,833.79 885.632,832.747 885.711,832.41C886,831.176 885.825,834.943 885.894,836.209C885.927,836.828 887.003,845.014 887.03,844.266C887.163,840.622 887.254,836.976 887.375,833.331C887.499,829.605 887.808,825.679 887.903,822.395C887.96,820.438 888.003,818.481 888.085,816.525C888.093,816.333 888.115,817.292 888.126,817.1C888.162,816.486 888.074,814.658 888.207,815.258C888.346,815.883 887.922,814.338 888.491,814.338C889.069,814.338 888.54,815.497 888.653,816.064C888.781,816.708 888.782,814.757 888.877,814.107C888.912,813.869 889.069,815.038 889.08,814.798C889.203,812.074 889.295,809.349 889.424,806.625C889.575,803.442 889.698,800.257 889.709,797.071C889.792,772.476 889.758,747.881 889.769,723.286C889.839,572.415 889.853,421.544 889.952,270.673C889.963,253.675 890.015,304.669 890.033,321.667C890.17,449.286 890.226,576.904 890.419,704.523C890.463,733.684 890.573,762.845 890.743,792.006C890.868,813.45 890.865,822.699 891.454,840.237C891.462,840.467 891.451,839.318 891.474,839.547C891.855,843.342 891.954,855.213 892.367,854.626C893.231,853.399 892.576,857.619 892.691,859.115C892.73,859.615 892.665,861.084 892.833,860.612C894.266,856.592 891.981,864.18 893.341,864.18C893.657,864.18 893.382,863.001 893.564,863.259C893.933,863.783 893.967,863.794 894.051,863.259C894.158,862.574 894.113,864.648 894.234,865.331C894.295,865.674 894.301,866.027 894.376,866.367C894.615,867.456 894.506,864.14 894.599,863.029C894.676,862.108 894.682,861.177 894.842,860.267C894.995,859.393 894.899,863.772 895.126,862.914C895.343,862.097 894.928,861.223 895.005,860.382C895.075,859.616 895.08,861.918 895.147,862.684C895.222,863.533 895.367,863.268 895.451,864.065C895.536,864.868 895.542,862.452 895.613,861.648C895.64,861.343 896.249,854.971 896.445,854.971C896.906,854.971 896.43,855.902 896.526,856.353C896.622,856.808 896.441,855.351 896.709,854.971C897.152,854.342 896.788,856.507 896.851,857.274C896.908,857.965 896.961,858.657 897.034,859.346C897.115,860.111 896.999,857.787 897.196,857.043C897.393,856.299 897.318,858.578 897.379,859.346C897.522,861.145 897.51,855.738 897.582,853.935C897.845,847.376 898.013,840.813 898.231,834.252C898.241,833.945 898.231,835.479 898.251,835.173C898.37,833.308 898.242,833.437 898.434,831.489C898.479,831.03 898.349,833.293 898.535,832.87C898.933,831.963 898.484,832 898.657,831.029C898.705,830.762 898.758,832.105 898.779,831.834C898.835,831.105 898.518,826.409 899.103,829.072C899.284,829.898 899.136,827.38 899.225,826.539C899.275,826.064 899.693,824.841 899.895,825.273C900.085,825.679 899.297,818.481 900.077,822.856C900.205,823.575 899.912,824.314 899.956,825.043C899.993,825.658 899.482,823.201 900.098,823.201C900.713,823.201 900.128,824.432 900.199,825.043C900.297,825.884 900.061,823.286 900.402,822.51C900.618,822.017 900.252,824.598 900.504,824.122C900.703,823.747 900.572,822.438 900.646,822.856C900.673,823.009 900.828,825.622 900.828,825.618C900.875,825.225 900.554,824.718 900.869,825.043C901.137,825.32 900.903,824.271 900.97,823.892C901.058,823.391 900.766,825.388 901.275,825.388C902.084,825.388 901.402,823.776 901.478,822.971C901.503,822.701 901.469,823.529 901.579,823.777C901.922,824.55 901.682,822.089 901.721,821.244C901.778,820.016 901.82,818.788 901.883,817.561C901.99,815.471 902.24,811.898 902.452,809.273C902.481,808.919 902.577,810.643 902.695,810.309C902.99,809.474 902.671,806.805 902.898,807.661C904.033,811.939 903.277,811.932 903.791,816.41C903.822,816.678 903.844,815.873 903.852,815.604C903.911,813.724 903.956,811.844 903.994,809.963C904.05,807.201 904.118,804.438 904.136,801.675C904.179,794.96 904.173,788.246 904.176,781.531C904.257,611.475 904.276,441.42 904.4,271.364C904.403,267.834 904.437,278.424 904.44,281.954C904.504,350.291 904.53,418.628 904.602,486.965C904.701,581.163 904.671,675.363 905.15,769.56C905.269,792.993 905.407,807.14 906.023,829.762C906.029,829.995 906.098,828.843 906.145,829.072C906.315,829.901 906.277,832.449 906.327,831.604C906.361,831.027 906.275,829.333 906.469,829.877C906.702,830.531 906.494,831.278 906.672,831.949C906.72,832.132 906.76,833.179 906.774,833.101C906.827,832.798 906.712,831.89 906.814,832.18C907.068,832.905 906.698,833.745 906.916,834.482C907.091,835.073 906.972,832.033 907.078,832.64C907.15,833.057 907.019,834.305 907.159,833.906C907.274,833.579 907.224,832.524 907.24,832.87C907.594,840.454 906.53,844.576 908.458,851.863C908.517,852.085 908.464,851.403 908.478,851.173C908.565,849.791 908.704,848.412 908.762,847.029C908.893,843.922 908.935,840.812 909.046,837.705C909.321,829.992 909.667,822.282 909.919,814.568C910.745,789.231 910.554,764.455 910.568,738.825C910.652,581.815 910.679,424.805 910.791,267.795C910.802,252.447 910.853,298.491 910.872,313.839C911.022,432.019 911.101,550.198 911.299,668.378C911.364,707.286 911.465,746.195 911.968,785.1C912.159,799.885 910.776,815.626 913.348,830.223C913.565,831.453 913.348,828.781 913.409,829.302C913.599,830.921 913.563,832.52 913.896,834.137C913.982,834.554 914.047,833.296 914.058,832.87C914.093,831.527 914.27,824.353 914.363,823.201C914.391,822.854 914.445,823.894 914.505,824.237C914.658,825.107 914.595,822.472 914.647,821.59C914.652,821.503 914.76,821.446 914.768,821.359C914.834,820.669 914.754,818.622 914.951,819.287C915.579,821.41 915.047,818.342 915.154,816.985C915.178,816.678 915.202,818.213 915.215,817.906C915.338,815.014 914.976,814.932 915.438,813.187C915.517,812.889 915.518,814.415 915.54,814.107C915.601,813.264 915.456,812.39 915.682,811.575C915.836,811.02 915.677,812.732 915.763,813.302C915.82,813.684 915.681,812.466 915.905,812.151C916.841,810.838 916.04,815.374 916.128,816.985C916.149,817.369 916.161,815.451 916.189,815.834C916.255,816.754 916.269,817.677 916.331,818.597C916.364,819.096 916.304,816.617 916.432,817.1C916.936,819.002 916.5,818.932 916.676,821.014C916.796,822.432 916.898,815.334 916.98,816.755C917.263,821.686 917.297,821.51 917.609,825.043C917.697,826.04 917.173,827.302 917.853,828.036C918.428,828.657 917.957,826.346 918.035,825.503C918.053,825.312 918.358,824.853 918.38,825.043C918.86,829.14 919.222,832.454 919.273,832.065C919.557,829.921 919.153,830.049 919.496,827.805C919.56,827.387 919.515,828.654 919.578,829.072C919.693,829.832 919.687,827.538 919.699,826.769C919.798,820.285 919.92,813.801 919.943,807.316C920.022,784.524 919.993,761.733 920.004,738.941C920.081,584.54 920.102,430.139 920.207,275.738C920.217,260.889 920.269,305.436 920.288,320.285C920.438,439.884 920.513,559.484 920.714,679.083C920.756,704.331 920.88,729.579 921.018,754.826C921.055,761.656 921.101,768.486 921.241,775.315C921.372,781.686 921.609,788.055 921.83,794.424C921.921,797.048 921.856,797.031 922.073,797.647C922.228,798.089 922.12,799.444 922.337,799.028C924.63,794.634 922.78,780.88 922.784,775.891C922.822,727.315 922.84,678.738 922.865,630.162C922.928,504.922 922.979,379.682 923.047,254.442C923.047,254.02 923.067,255.287 923.068,255.709C923.094,263.92 923.116,272.131 923.129,280.342C923.325,402.435 923.443,524.529 923.697,646.622C923.768,680.91 922.909,716.481 924.934,750.912C924.95,751.18 924.879,749.848 924.955,750.106C925.39,751.576 925.075,751.465 925.219,752.869C925.466,755.275 925.436,748.035 925.442,745.617C925.531,711.084 925.503,676.551 925.523,642.018C925.604,504.845 925.656,367.672 925.746,230.499C925.748,227.237 925.782,237.022 925.787,240.284C925.85,281.148 925.885,322.012 925.949,362.876C926.092,454.504 926.135,546.133 926.659,637.759C926.781,659.058 926.913,683.109 927.39,704.983C927.538,711.785 927.598,727.478 928.404,733.876C928.591,735.362 928.584,730.884 928.587,729.386C928.658,698.076 928.649,666.767 928.668,635.457C928.751,495.675 928.793,355.893 928.891,216.111C928.894,212.006 928.945,224.322 928.952,228.427C929.027,274.164 929.06,319.902 929.135,365.639C929.276,451.128 929.463,536.616 929.906,622.104C930.073,654.385 929.286,687.096 931.184,719.372C931.229,720.138 931.243,717.838 931.245,717.07C931.283,704.523 931.299,691.976 931.306,679.429C931.394,524.529 931.347,369.629 931.59,214.729C931.592,213.424 931.627,217.338 931.631,218.643C931.675,234.029 931.699,249.416 931.732,264.802C931.902,344.919 931.925,425.036 932.239,505.152C932.486,568.118 932.917,631.083 933.416,694.048C933.499,704.529 933.506,716.171 934.553,726.739C935.113,732.39 934.609,715.382 934.613,709.703C934.656,651.073 934.679,592.444 934.715,533.814C934.781,426.186 934.814,318.559 934.918,210.931C934.927,201.569 934.979,229.656 934.999,239.018C935.202,332.948 935.284,426.878 935.587,520.807C935.731,565.393 934.584,624.784 936.825,674.134C936.834,674.326 936.844,673.75 936.845,673.558C936.864,670.373 936.883,667.189 936.886,664.004C936.944,606.372 936.981,548.741 937.028,491.109C937.109,392.613 937.176,294.117 937.272,195.621C937.273,194.201 937.308,198.46 937.312,199.88C937.369,222.442 937.407,245.003 937.454,267.565C937.596,336.055 937.676,404.546 937.88,473.036C938.008,515.972 938.22,558.908 938.449,601.844C938.552,621.221 938.674,640.599 938.875,659.975C938.933,665.584 938.047,689.982 939.625,701.99C939.68,702.409 939.679,701.146 939.686,700.724C939.767,695.851 939.881,690.978 939.889,686.105C939.989,625.595 939.97,565.086 940.011,504.576C940.079,404.469 939.772,104.148 940.234,204.254C940.756,317.33 940.723,430.407 941.046,543.484C941.136,575.014 941.424,630.945 941.918,665.731C942.069,676.399 940.745,687.222 942.588,697.731C942.629,697.966 942.762,698.66 942.771,698.422C943.655,675.071 942.875,651.687 942.892,628.32C942.997,486.888 943.039,345.456 943.176,204.024C943.184,195.391 943.258,221.291 943.278,229.924C943.515,334.521 943.641,439.118 943.947,543.714C944.041,575.861 944.359,637.218 944.962,675.285C945.31,697.242 946.147,718.645 946.809,741.128C946.905,744.379 947.574,767.207 947.823,768.639C948.119,770.343 947.996,772.096 948.148,773.819C948.168,774.049 948.181,772.898 948.209,773.128C948.297,773.853 948.264,776.042 948.33,775.315C950.263,754.033 948.959,745.312 948.98,709.242C949.029,624.363 949.641,516.591 949.832,601.499C949.891,627.975 950.045,654.45 950.218,680.925C950.359,702.483 950.507,713.52 951.009,733.645C951.086,736.714 951.246,727.507 951.252,724.437C951.34,681.808 951.326,639.178 951.354,596.549C951.435,472.998 951.496,349.446 951.577,225.895C951.579,223.324 951.633,231.036 951.638,233.607C951.694,263.421 951.729,293.234 951.78,323.048C951.992,446.636 951.244,570.34 953.302,693.932C953.979,734.572 955.378,770.807 957.34,811.23C957.349,811.422 957.369,810.462 957.38,810.654C958.046,821.999 957.091,835.288 958.882,845.417C959.872,851.015 956.333,867.082 959.633,862.454C960.322,861.488 960.164,862.415 960.323,863.72C960.351,863.95 960.375,863.26 960.384,863.029C960.51,859.691 960.617,856.353 960.728,853.015C961.067,842.807 960.748,841.381 961.52,835.748C961.566,835.413 961.925,837.007 961.946,836.669C962.075,834.561 962.079,832.448 962.169,830.338C962.179,830.102 962.308,831.264 962.332,831.029C962.413,830.226 962.182,827.851 962.453,828.611C962.891,829.839 962.714,832.807 962.778,831.834C963.272,824.37 963.248,818.22 963.894,811.46C963.931,811.076 963.813,812.283 964.016,812.611C964.199,812.908 964.12,811.228 964.158,811.575C964.399,813.804 964.157,813.599 964.482,815.949C964.504,816.108 964.579,816.564 964.624,816.41C964.766,815.928 964.72,814.418 964.807,814.913C965.321,817.825 965.247,817.692 965.477,820.669C965.509,821.09 965.348,819.789 965.517,819.402C965.999,818.3 965.646,824.105 966.045,822.971C966.795,820.841 966.833,804.479 966.897,803.402C967.005,801.599 967.065,799.793 967.201,797.992C967.245,797.415 967.3,795.69 967.364,796.265C967.96,801.575 967.762,801.365 968.399,806.625C968.453,807.067 968.748,807.452 968.825,807.891C968.892,808.27 968.866,806.36 968.926,806.74C969.172,808.302 968.914,819.142 969.718,813.647C969.902,812.389 969.979,818.715 970.063,817.446C970.348,813.13 970.098,813.332 970.448,809.043C970.52,808.163 970.468,810.813 970.57,811.69C970.624,812.152 970.308,810.309 970.773,810.309C971.081,810.309 970.651,810.998 970.854,811.23C971.031,811.432 970.861,810.692 970.874,810.424C970.942,809.081 971.008,807.737 971.097,806.395C971.121,806.04 971.103,807.372 971.138,806.971C972.157,795.251 972.064,783.553 972.071,771.517C972.115,694.201 972.132,616.886 972.173,539.57C972.22,452.47 972.273,365.37 972.335,278.27C972.336,276.467 972.353,281.877 972.355,283.68C972.4,324.506 972.43,365.331 972.477,406.157C972.572,488.921 972.634,571.686 972.782,654.45C972.837,685.53 972.936,716.61 973.086,747.689C973.139,758.625 973.277,769.56 973.39,780.495C973.453,786.598 973.715,792.697 973.898,798.798C973.969,801.178 973.767,808.28 974.182,805.935C974.242,805.594 974.148,804.572 974.263,804.899C974.429,805.37 974.034,806.801 974.324,806.395C974.392,806.299 974.421,803.153 974.506,803.747C974.674,804.926 974.583,806.127 974.648,807.316C974.926,812.426 975.941,830.82 976.637,840.122C976.663,840.471 977.087,840.894 977.165,839.892C977.258,838.702 977.344,842.273 977.469,843.46C977.627,844.952 977.671,846.453 977.773,847.95C977.82,848.644 978.194,850.97 978.585,857.504C979.158,867.092 979.33,874.382 980.371,883.749C980.401,884.017 980.384,883.208 980.431,882.943C980.498,882.561 980.527,883.712 980.594,884.094C980.925,885.97 980.656,886.166 980.878,886.166C985.607,886.166 981.36,895.614 981.771,900.325C981.828,900.977 981.559,898.918 981.913,898.368C982.204,897.916 981.938,899.444 981.994,899.979C982.054,900.552 981.713,898.684 982.095,898.253C982.35,897.966 982.127,899.787 982.156,899.404C982.286,897.686 982.27,896.106 982.4,896.987C982.474,897.485 982.446,895.012 982.603,895.49C983.377,897.85 982.828,897.705 983.029,899.979C983.049,900.208 983.017,899.061 983.049,899.289C983.451,902.147 983.407,905.051 983.698,907.922C983.744,908.38 983.718,906.082 983.759,906.541C983.848,907.538 984.131,906.611 984.145,906.311C984.175,905.695 984.06,903.904 984.307,904.469C984.577,905.086 984.704,904.734 984.754,904.123C984.805,903.509 984.771,906.564 984.916,905.965C985.289,904.422 984.814,904.507 985.22,902.972C985.34,902.519 985.265,903.939 985.484,904.354C985.602,904.577 985.446,904.427 985.707,906.311C985.75,906.62 985.74,904.353 985.93,904.584C986.979,905.858 986.086,907.968 986.6,909.418C986.87,910.181 986.795,907.81 986.823,907.001C986.967,902.817 986.81,902.995 987.29,898.713C987.312,898.516 987.367,899.476 987.432,899.289C987.534,898.996 987.552,896.742 987.615,897.217C987.706,897.902 987.494,898.603 987.574,899.289C987.64,899.861 987.621,898.137 987.655,897.562C987.753,895.903 987.597,896.088 987.98,894.339C988.054,894.002 987.98,892.958 988,893.303C988.041,893.993 987.961,894.689 988.041,895.375C988.095,895.832 988.061,894.454 988.081,893.994C988.098,893.609 988.146,894.763 988.203,895.145C988.223,895.28 988.413,894.936 988.426,894.8C988.501,893.996 988.474,893.182 988.589,892.382C988.644,892.002 988.512,893.904 988.609,893.533C988.745,893.01 988.762,892.462 988.792,891.922C988.99,888.317 989.094,884.707 989.279,881.101C989.287,880.942 989.388,881.72 989.4,881.562C989.7,877.63 989.792,877.796 990.029,873.849C990.137,872.043 990.294,870.241 990.455,868.439C990.493,868.018 990.44,866.761 990.537,867.173C990.677,867.771 990.369,869.577 990.618,869.015C990.806,868.591 990.593,867.21 990.78,867.634C991.598,869.493 991.102,872.037 991.267,874.08C991.286,874.31 991.268,873.162 991.308,873.389C991.409,873.958 991.41,875.691 991.47,875.116C991.514,874.696 991.357,874.265 991.429,873.849C991.574,873.013 991.546,875.546 991.693,876.382C992.067,878.502 991.965,880.679 992.099,882.828C992.156,883.749 992.17,880.983 992.261,880.065C992.402,878.65 992.399,885.743 992.505,884.325C992.768,880.787 992.183,880.778 992.911,879.95C993.216,879.603 992.96,881.792 992.992,881.332C993.017,880.977 993.261,882.187 993.377,881.792C993.712,880.646 992.894,886.256 993.682,885.36C994.697,884.206 993.861,882.291 993.946,880.756C994.234,875.522 994.087,875.631 994.676,870.281C994.753,869.585 994.842,873.03 995.021,872.353C995.205,871.659 995.408,873.994 995.427,873.389C995.657,865.947 995.702,858.501 995.894,851.058C995.955,848.716 996.218,844.036 996.218,844.036" style="fill:rgb(0,90,148);stroke:rgb(224,224,224);stroke-width:2.04px;" class="OdchTWbc_1"></path>
        </g>
    </g>
<style data-made-with="vivus-instant">.OdchTWbc_0{stroke-dasharray:2475 2477;stroke-dashoffset:2476;animation:OdchTWbc_draw_0 7200ms linear 0ms infinite,OdchTWbc_fade 7200ms linear 0ms infinite;}.OdchTWbc_1{stroke-dasharray:64965 64967;stroke-dashoffset:64966;animation:OdchTWbc_draw_1 7200ms linear 0ms infinite,OdchTWbc_fade 7200ms linear 0ms infinite;}@keyframes OdchTWbc_draw{100%{stroke-dashoffset:0;}}@keyframes OdchTWbc_fade{0%{stroke-opacity:1;}94.44444444444444%{stroke-opacity:1;}100%{stroke-opacity:0;}}@keyframes OdchTWbc_draw_0{11.11111111111111%{stroke-dashoffset: 2476}52.77777777777778%{ stroke-dashoffset: 0;}100%{ stroke-dashoffset: 0;}}@keyframes OdchTWbc_draw_1{11.11111111111111%{stroke-dashoffset: 64966}52.77777777777778%{ stroke-dashoffset: 0;}100%{ stroke-dashoffset: 0;}}</style></svg>
